<svg width="84" height="84" viewBox="0 0 84 84" fill="none" xmlns="http://www.w3.org/2000/svg">
<g clip-path="url(#clip0_3048_75535)">
<path d="M24.5 63.0002C20.1329 63.0002 15.9448 61.3408 12.8568 58.3871C9.76885 55.4334 8.03406 51.4274 8.03406 47.2502C8.03406 43.073 9.76885 39.067 12.8568 36.1133C15.9448 33.1596 20.1329 31.5002 24.5 31.5002C25.5314 26.9053 28.5486 22.8674 32.888 20.2747C35.0367 18.9909 37.4452 18.1006 39.9762 17.6546C42.5071 17.2086 45.1109 17.2156 47.6389 17.6752C50.1668 18.1348 52.5694 19.0381 54.7095 20.3334C56.8496 21.6287 58.6852 23.2907 60.1116 25.2244C61.538 27.1582 62.5273 29.3259 63.0229 31.6038C63.5184 33.8816 63.5107 36.225 63 38.5002H66.5C69.7489 38.5002 72.8647 39.7908 75.162 42.0881C77.4593 44.3855 78.75 47.5013 78.75 50.7502C78.75 53.9991 77.4593 57.1149 75.162 59.4123C72.8647 61.7096 69.7489 63.0002 66.5 63.0002H63" stroke="#CFCFCF" stroke-width="5" stroke-linecap="round" stroke-linejoin="round"/>
<path d="M31.5 52.5L42 42L52.5 52.5" stroke="#CFCFCF" stroke-width="5" stroke-linecap="round" stroke-linejoin="round"/>
<path d="M42 42V73.5" stroke="#CFCFCF" stroke-width="5" stroke-linecap="round" stroke-linejoin="round"/>
</g>
<defs>
<clipPath id="clip0_3048_75535">
<rect width="84" height="84" fill="white"/>
</clipPath>
</defs>
</svg>
