<svg width="24" height="25" viewBox="0 0 24 25" fill="none" xmlns="http://www.w3.org/2000/svg">
<path d="M24 12.5C24 5.87258 18.6274 0.5 12 0.5C5.37258 0.5 0 5.87258 0 12.5C0 19.1274 5.37258 24.5 12 24.5C18.6274 24.5 24 19.1274 24 12.5Z" fill="white"/>
<path fill-rule="evenodd" clip-rule="evenodd" d="M17.8724 12.6365C17.8724 12.211 17.8343 11.8019 17.7633 11.4092H12.1124V13.7301H15.3415C15.2024 14.4801 14.7797 15.1156 14.1442 15.541V17.0465H16.0833C17.2179 16.0019 17.8724 14.4637 17.8724 12.6365Z" fill="#4285F4"/>
<path fill-rule="evenodd" clip-rule="evenodd" d="M12.1122 18.4999C13.7322 18.4999 15.0904 17.9626 16.0831 17.0463L14.144 15.5408C13.6067 15.9008 12.9195 16.1135 12.1122 16.1135C10.5495 16.1135 9.22673 15.0581 8.75492 13.6399H6.75037V15.1944C7.73764 17.1554 9.76674 18.4999 12.1122 18.4999Z" fill="#34A853"/>
<path fill-rule="evenodd" clip-rule="evenodd" d="M8.75516 13.64C8.63516 13.28 8.56698 12.8954 8.56698 12.5C8.56698 12.1045 8.63516 11.72 8.75516 11.36V9.80542H6.75061C6.34425 10.6154 6.11243 11.5318 6.11243 12.5C6.11243 13.4682 6.34425 14.3845 6.75061 15.1945L8.75516 13.64Z" fill="#FBBC05"/>
<path fill-rule="evenodd" clip-rule="evenodd" d="M12.1122 8.88637C12.9931 8.88637 13.784 9.1891 14.4058 9.78364L16.1267 8.06273C15.0877 7.09455 13.7295 6.5 12.1122 6.5C9.76674 6.5 7.73764 7.84455 6.75037 9.80546L8.75492 11.36C9.22673 9.94183 10.5495 8.88637 12.1122 8.88637Z" fill="#EA4335"/>
</svg>
