<svg width="20" height="17" viewBox="0 0 20 17" fill="none" xmlns="http://www.w3.org/2000/svg">
<path d="M9.6849 0.0210058H9.68477C9.56612 0.103239 9.36053 0.233177 8.97154 0.3857C8.41594 0.603647 7.57465 0.817576 6.42322 0.817576C5.2718 0.817576 4.43092 0.603657 3.87531 0.3857C3.65253 0.298359 3.50622 0.215723 3.3713 0.139537V2.27789C3.37574 2.28233 3.38084 2.283 3.38555 2.28569L4.61179 2.99437C4.91641 3.17053 5.06651 3.51437 5.01518 3.84384L5.67399 4.22491L8.58566 3.43966C8.73709 3.39895 8.88988 3.39102 9.03635 3.41131C9.41016 3.46371 9.74245 3.70195 9.90843 4.05185L10.6398 3.85567C10.7912 3.81495 10.9447 3.80662 11.0914 3.82691V3.82678C11.0926 3.82664 11.0939 3.82664 11.0951 3.82678H11.0955C11.0972 3.82664 11.0988 3.82664 11.1006 3.82678L13.677 4.22976L14.3467 3.8425C14.2953 3.51302 14.4454 3.1689 14.7501 2.99288L15.9764 2.2842C15.9809 2.27977 15.9858 2.2791 15.9907 2.27641V0.128902C15.8472 0.206433 15.681 0.293369 15.4416 0.384742C14.8737 0.601615 14.034 0.815929 12.9387 0.815929C11.8435 0.815929 11.0035 0.601474 10.4355 0.384742C10.0276 0.229009 9.80777 0.0981322 9.68562 0.0195312L9.6849 0.0210058ZM2.9806 2.58291C2.94015 2.58291 2.89998 2.58735 2.86142 2.59649C2.75849 2.62403 2.66631 2.69189 2.60732 2.79428L0.299792 6.79553C0.181681 7.00031 0.248999 7.252 0.453375 7.37009L1.67989 8.07901C1.85713 8.18141 2.06901 8.14445 2.19911 7.9992C2.20851 7.98307 2.2202 7.96829 2.23364 7.95526C2.24022 7.94545 2.24694 7.93551 2.25286 7.9253L4.56011 3.92404C4.5667 3.91303 4.5722 3.90147 4.57745 3.89032L4.57758 3.89018C4.58188 3.87325 4.58833 3.85699 4.59679 3.84181C4.65806 3.65585 4.58416 3.45228 4.40653 3.3496L3.18028 2.64092C3.15543 2.62654 3.1299 2.61512 3.10396 2.60598V2.60585H3.09886C3.05975 2.59268 3.01984 2.58569 2.98034 2.58449L2.9806 2.58291ZM16.3806 2.58291C16.3418 2.58291 16.3027 2.59111 16.2642 2.60388H16.2641C16.2615 2.60535 16.259 2.60683 16.2563 2.60818C16.2306 2.61718 16.2054 2.62874 16.1808 2.64271L14.9545 3.35139C14.7765 3.45432 14.7026 3.65856 14.7646 3.8448V3.84494C14.7729 3.85985 14.7793 3.87571 14.7836 3.89224C14.7887 3.90379 14.7947 3.91481 14.801 3.92596L17.1081 7.92722C17.1147 7.93797 17.121 7.94818 17.128 7.95799H17.1281C17.141 7.97075 17.1523 7.985 17.1614 8.00058C17.2916 8.14624 17.5041 8.18359 17.6814 8.08094L18.9077 7.37188C19.1121 7.25376 19.1794 7.0025 19.0613 6.79773L16.7537 2.79579C16.6947 2.6934 16.6026 2.62568 16.4996 2.59799C16.4611 2.58778 16.4209 2.58321 16.3805 2.58442L16.3806 2.58291ZM8.91162 3.81012C8.83987 3.80569 8.76623 3.8159 8.69273 3.83565L5.7018 4.64227H5.70166H5.70126H5.69911C5.69548 4.64374 5.69186 4.64522 5.68809 4.64657C5.68285 4.64831 5.67748 4.64979 5.67197 4.651H5.66754C5.66283 4.65113 5.65813 4.65113 5.65329 4.651C5.65074 4.65113 5.64805 4.65127 5.64536 4.6514C5.64174 4.6514 5.63797 4.65127 5.63435 4.651H5.624H5.61513C5.61097 4.64966 5.60693 4.64818 5.6029 4.64657C5.60075 4.6467 5.5986 4.6467 5.59645 4.64657C5.59202 4.64536 5.58759 4.64388 5.58329 4.64227C5.581 4.64079 5.57885 4.63931 5.5767 4.63783C5.57227 4.63635 5.56797 4.63461 5.56367 4.63273H5.55937C5.55413 4.63044 5.54916 4.62775 5.54418 4.62493H5.54351L4.85984 4.22949L2.6617 8.04154L3.27671 8.43042H3.27657H3.27886L4.45863 9.17646C4.46441 9.17068 4.46978 9.1645 4.47569 9.15845L5.60655 8.02598C5.80206 7.8302 6.05951 7.73252 6.31695 7.73252C6.57454 7.73252 6.832 7.8302 7.02749 8.02598C7.2578 8.25656 7.3524 8.57313 7.31141 8.87425C7.35656 8.86847 7.40225 8.86485 7.44793 8.86485C7.70552 8.86485 7.96299 8.96253 8.15847 9.15831C8.38865 9.38889 8.48325 9.70518 8.4424 10.0063C8.48768 10.0005 8.53323 9.9969 8.57892 9.9969C8.8365 9.9969 9.09411 10.095 9.28973 10.2908C9.52004 10.5213 9.6145 10.8376 9.57366 11.1388C9.6188 11.133 9.66435 11.1294 9.70991 11.1294C9.96749 11.1294 10.2251 11.227 10.4207 11.4228C10.8117 11.8144 10.8117 12.4536 10.4207 12.8451L10 13.2664L10.747 14.0144C10.9824 14.2502 11.3523 14.2502 11.5877 14.0144C11.8231 13.7786 11.8231 13.4076 11.5877 13.1718L11.5875 13.1715C11.5867 13.17 11.586 13.1686 11.5852 13.1671L11.1027 12.684H11.1028C11.043 12.6258 11.0246 12.5372 11.056 12.4599C11.0875 12.3826 11.1625 12.3321 11.2459 12.3321C11.3014 12.3321 11.3545 12.3544 11.3932 12.3942L11.8777 12.8797C12.1131 13.1155 12.4831 13.1155 12.7184 12.8797C12.9539 12.644 12.9539 12.2731 12.7184 12.0374L12.2412 11.5592C12.1814 11.5009 12.1628 11.4124 12.1941 11.335C12.2256 11.2577 12.3007 11.207 12.3841 11.207C12.4396 11.207 12.4927 11.2295 12.5314 11.2694L13.009 11.7474C13.2444 11.9832 13.6139 11.9832 13.8495 11.7474C14.0849 11.5117 14.0849 11.1408 13.8495 10.9051L13.35 10.4047C13.3097 10.3667 13.2864 10.3139 13.2856 10.2584C13.2848 10.2031 13.3066 10.1496 13.3458 10.1105C13.3851 10.0712 13.4384 10.0496 13.4939 10.0504C13.5494 10.0512 13.6021 10.0745 13.6401 10.1149L14.1398 10.6153C14.3752 10.8511 14.7447 10.8511 14.9803 10.6153C15.2157 10.3796 15.2157 10.0085 14.9803 9.77268L11.2446 6.03251L7.88389 6.95268C7.27775 7.11862 6.65104 6.7534 6.48885 6.1474C6.32667 5.54126 6.68785 4.91456 7.2936 4.75212L9.50386 4.15916C9.37809 3.94874 9.15636 3.81719 8.91251 3.80871L8.91162 3.81012ZM10.9104 4.22693C10.8562 4.22693 10.8012 4.23674 10.746 4.25152L9.84144 4.49419H9.8413H9.83768L7.39847 5.14856C7.0057 5.2539 6.77822 5.64775 6.88355 6.04131C6.98888 6.43486 7.38288 6.66409 7.77403 6.55701L11.2204 5.61345V5.61359C11.2462 5.6023 11.2739 5.59652 11.3019 5.59639C11.3529 5.59639 11.4021 5.61534 11.4399 5.64974C11.4436 5.65296 11.4472 5.65645 11.4507 5.65995L14.9828 9.19613L15.9894 8.44191H15.9895C15.9929 8.43922 15.9964 8.43667 16 8.43411C16.0031 8.4321 16.0062 8.43022 16.0094 8.42833H16.0122L16.0207 8.42323H16.0208H16.0212L16.0676 8.39649C16.0832 8.38426 16.1005 8.37432 16.119 8.36693L16.6963 8.03342L14.502 4.22859L13.852 4.6047L13.8518 4.60457C13.8083 4.64071 13.7517 4.65738 13.6956 4.65039C13.6918 4.65052 13.6879 4.65052 13.684 4.65039L11.036 4.23612H11.0345C11.0111 4.23169 10.9876 4.23102 10.9637 4.23034H10.9636H10.9097L10.9104 4.22693ZM6.31607 8.13875C6.16477 8.13875 6.01347 8.19773 5.89575 8.31558L4.76489 9.44764C4.52948 9.68346 4.52948 10.0545 4.76489 10.2903C5.00031 10.5261 5.37024 10.5261 5.60563 10.2903L6.73649 9.15779C6.97191 8.92197 6.97191 8.55124 6.73649 8.31558C6.61878 8.19773 6.46738 8.13875 6.31607 8.13875ZM15.99 8.95558L15.2755 9.49089C15.6606 9.88296 15.6588 10.5175 15.2698 10.907C15.0396 11.1375 14.7237 11.2321 14.4227 11.1913C14.4637 11.4925 14.3691 11.8088 14.1389 12.0393C13.9089 12.2696 13.5928 12.3644 13.292 12.3237C13.3328 12.6248 13.2382 12.9409 13.0079 13.1714C12.7777 13.4019 12.4616 13.4966 12.1606 13.4557C12.2016 13.7569 12.107 14.0733 11.8767 14.3039C11.4856 14.6954 10.8467 14.6954 10.4557 14.3039L9.70913 13.5561L9.28881 13.9771C8.8978 14.3686 8.25861 14.3686 7.86746 13.9771C7.63715 13.7465 7.54269 13.4301 7.58353 13.129C7.28268 13.1697 6.96663 13.0751 6.73647 12.8446C6.50629 12.6142 6.4117 12.2979 6.45254 11.9969C6.15169 12.0376 5.83578 11.943 5.60561 11.7125C5.37531 11.482 5.28084 11.1655 5.32169 10.8644C5.02084 10.9051 4.70479 10.8107 4.47463 10.5802C4.19057 10.2958 4.11303 9.88069 4.24163 9.52473L3.37117 8.97435V10.118C3.37117 11.8007 4.93497 13.4023 6.54338 14.5661C8.08499 15.6816 9.55474 16.3514 9.68037 16.4084C9.806 16.3514 11.2757 15.6816 12.8174 14.5661C14.4258 13.4022 15.9896 11.8006 15.9896 10.118L15.99 8.95558ZM7.44709 9.27121C7.2958 9.27121 7.14449 9.32993 7.02678 9.44777L5.89592 10.5802C5.6605 10.8161 5.6605 11.1867 5.89592 11.4225C6.13134 11.6583 6.50127 11.6583 6.73666 11.4225L7.86752 10.2904C8.10293 10.0547 8.10293 9.68358 7.86752 9.44777C7.74981 9.32993 7.59837 9.27121 7.4472 9.27121H7.44709ZM8.57795 10.4033C8.42665 10.4033 8.27535 10.4623 8.15763 10.5802L7.02678 11.7126C6.79136 11.9484 6.79136 12.3191 7.02678 12.5548C7.2622 12.7906 7.63212 12.7906 7.86752 12.5548L8.99837 11.4223C9.23379 11.1865 9.23379 10.8159 8.99837 10.5801C8.88066 10.4623 8.72923 10.4031 8.57805 10.4031L8.57795 10.4033ZM9.70881 11.5357C9.55751 11.5357 9.40634 11.5947 9.28863 11.7126L8.1575 12.8446C7.92208 13.0805 7.92208 13.4515 8.1575 13.6873C8.39291 13.9231 8.76284 13.9231 8.99823 13.6873L10.1291 12.5548C10.3645 12.3191 10.3645 11.9482 10.1291 11.7126C10.0114 11.5947 9.85995 11.5357 9.70864 11.5357H9.70881Z" fill="#005C00"/>
</svg>
