<svg width="17" height="17" viewBox="0 0 17 17" fill="none" xmlns="http://www.w3.org/2000/svg">
<path d="M8.62504 11.8668C9.23978 11.8668 9.73812 11.3684 9.73812 10.7537C9.73812 10.139 9.23978 9.64062 8.62504 9.64062C8.01031 9.64062 7.51196 10.139 7.51196 10.7537C7.51196 11.3684 8.01031 11.8668 8.62504 11.8668Z" fill="#005C00"/>
<path d="M12.9134 6.52678V5.67319C12.9134 3.82944 12.4695 1.38477 8.62497 1.38477C4.78041 1.38477 4.33654 3.82944 4.33654 5.67319V6.52678C2.42451 6.76578 1.79626 7.73546 1.79626 10.1187V11.3888C1.79626 14.1886 2.64985 15.0422 5.44962 15.0422H11.8003C14.6001 15.0422 15.4537 14.1886 15.4537 11.3888V10.1187C15.4537 7.73546 14.8254 6.76578 12.9134 6.52678ZM8.62497 12.816C7.48457 12.816 6.5627 11.8873 6.5627 10.7537C6.5627 9.61335 7.4914 8.69148 8.62497 8.69148C9.75853 8.69148 10.6872 9.62018 10.6872 10.7537C10.6872 11.8941 9.76536 12.816 8.62497 12.816ZM5.44962 6.46532C5.39499 6.46532 5.34719 6.46532 5.29256 6.46532V5.67319C5.29256 3.67238 5.85934 2.34078 8.62497 2.34078C11.3906 2.34078 11.9574 3.67238 11.9574 5.67319V6.47215C11.9027 6.47215 11.8549 6.47215 11.8003 6.47215H5.44962V6.46532Z" fill="#005C00"/>
</svg>
