<svg width="121" height="33" viewBox="0 0 121 33" fill="none" xmlns="http://www.w3.org/2000/svg">
<g clip-path="url(#clip0_2776_13063)">
<path d="M4.66764 26.8618C3.93292 26.8531 3.32353 26.8359 2.83948 26.8099C2.36407 26.784 1.94485 26.7235 1.58181 26.6284C1.22742 26.542 0.955137 26.4426 0.764974 26.3302C0.574811 26.2092 0.423545 26.0363 0.311176 25.8116C0.198807 25.5782 0.125335 25.3405 0.0907596 25.0985C0.0648283 24.8478 0.0518626 24.515 0.0518626 24.1001C0.0518626 23.4778 0.116691 23.0067 0.246347 22.6868C0.376004 22.367 0.630995 22.0775 1.01132 21.8181C1.40893 21.5588 1.67257 21.2952 1.80223 21.0272C1.94053 20.7506 2.00968 20.3055 2.00968 19.6918V15.063C2.00968 14.5358 1.94917 14.1209 1.82816 13.8183C1.70714 13.5158 1.46944 13.2608 1.11505 13.0534C0.873021 12.9064 0.682858 12.7638 0.544558 12.6255C0.406257 12.4786 0.280923 12.2408 0.168554 11.9124C0.0561845 11.5753 0 11.1561 0 10.6547C0 10.2312 0.0129657 9.88974 0.038897 9.63043C0.0648283 9.36247 0.121013 9.11612 0.207451 8.89139C0.302532 8.658 0.419223 8.48513 0.557523 8.37276C0.695824 8.25175 0.89463 8.15234 1.15394 8.07455C1.4219 7.98811 1.72443 7.93193 2.06154 7.906C2.39865 7.88006 2.82651 7.8671 3.34514 7.8671C3.38836 7.8671 4.24409 7.86278 5.91234 7.85413C7.58923 7.83685 8.80368 7.83252 9.55569 7.84117C12.2093 7.84117 14.1282 8.31658 15.3124 9.26739C16.5053 10.2182 17.0931 11.7265 17.0758 13.7924C17.0758 15.8237 16.4707 17.3969 15.2606 18.5119C14.0505 19.627 12.192 20.1672 9.68535 20.1326C8.9852 20.124 8.48386 20.1413 8.18133 20.1845C7.88744 20.219 7.69728 20.2839 7.61084 20.379C7.5244 20.474 7.48118 20.6426 7.48118 20.8846C7.48118 21.1526 7.55033 21.3557 7.68863 21.494C7.83558 21.6323 8.18565 21.8181 8.73885 22.0515C9.26612 22.3022 9.61187 22.5918 9.77611 22.9202C9.94898 23.24 10.0354 23.6766 10.0354 24.2298C10.0354 24.6879 9.99652 25.0552 9.91873 25.3318C9.84958 25.5998 9.7156 25.8461 9.51679 26.0709C9.32663 26.287 9.0241 26.4469 8.6092 26.5506C8.19429 26.6543 7.67999 26.7321 7.06628 26.784C6.45258 26.8359 5.65303 26.8618 4.66764 26.8618ZM9.55569 16.2948C10.2472 16.2948 10.7053 16.1651 10.93 15.9058C11.1548 15.6465 11.2455 15.1884 11.2023 14.5314C11.1505 13.7708 10.9041 13.1744 10.4633 12.7422C10.0311 12.3014 9.40874 12.0939 8.59623 12.1198C8.38014 12.1285 8.21158 12.1414 8.09057 12.1587C7.96956 12.1674 7.86151 12.1976 7.76643 12.2495C7.67135 12.3014 7.60652 12.3489 7.57194 12.3921C7.53737 12.4353 7.51144 12.5261 7.49415 12.6644C7.47686 12.8027 7.46822 12.928 7.46822 13.0404C7.47686 13.1441 7.48551 13.33 7.49415 13.5979C7.50279 13.8659 7.50712 14.1079 7.50712 14.324C7.50712 14.3413 7.50712 14.3629 7.50712 14.3888C7.50712 15.3051 7.59788 15.8583 7.77939 16.0484C7.96956 16.2386 8.56166 16.3207 9.55569 16.2948Z" fill="white"/>
<path d="M23.1178 26.7192C20.9655 26.7192 19.6041 26.6111 19.0336 26.395C18.4631 26.1703 18.1779 25.5263 18.1779 24.4631C18.1779 23.9359 18.2384 23.4994 18.3594 23.1536C18.4804 22.8079 18.7138 22.5183 19.0595 22.2849C19.3534 22.0947 19.5695 21.8959 19.7078 21.6885C19.8461 21.4724 19.9325 21.1872 19.9671 20.8328C20.0017 20.3746 20.019 19.3201 20.019 17.6691C20.019 17.2629 19.9412 16.9992 19.7856 16.8782C19.63 16.7486 19.3448 16.6751 18.9299 16.6578C18.4285 16.6319 18.0482 16.5238 17.7889 16.3337C17.5382 16.1435 17.4129 15.8107 17.4129 15.3353C17.4129 14.2289 17.884 13.2824 18.8261 12.4958C19.7251 11.7698 20.7148 11.4067 21.7953 11.4067C22.4608 11.4067 22.9838 11.571 23.3641 11.8994C23.7531 12.2192 23.9562 12.6471 23.9735 13.183C23.9735 13.2176 23.9735 13.2695 23.9735 13.3386C23.9735 13.4078 23.9735 13.4596 23.9735 13.4942C23.9735 13.5201 23.9735 13.559 23.9735 13.6109C23.9735 13.6627 23.9735 13.7016 23.9735 13.7276C23.9821 13.7449 23.9908 13.7751 23.9994 13.8183C24.0081 13.8529 24.0167 13.8788 24.0254 13.8961C24.0426 13.9048 24.0599 13.9221 24.0772 13.948C24.0945 13.9739 24.1161 13.9912 24.1421 13.9999C24.168 13.9999 24.1982 14.0042 24.2328 14.0128C24.2674 14.0215 24.3063 14.0258 24.3495 14.0258C24.3841 14.0258 24.4143 14.0215 24.4403 14.0128C24.4748 14.0042 24.5094 13.9912 24.544 13.9739C24.5786 13.948 24.6088 13.9264 24.6347 13.9091C24.6607 13.8832 24.6866 13.8486 24.7125 13.8054C24.7471 13.7622 24.7774 13.7233 24.8033 13.6887C24.8292 13.6541 24.8595 13.6022 24.8941 13.5331C24.9373 13.4639 24.9719 13.4034 24.9978 13.3516C25.0324 13.2997 25.0756 13.2262 25.1274 13.1312C25.1793 13.0361 25.2268 12.954 25.2701 12.8848C25.8924 11.8043 26.8476 11.2641 28.1355 11.2641C29.2851 11.2641 30.1365 11.6487 30.6897 12.418C31.2429 13.1873 31.5109 14.2721 31.4936 15.6724C31.4763 16.822 31.2516 17.6691 30.8194 18.2137C30.3872 18.7496 29.6784 19.0176 28.693 19.0176C28.2176 19.0176 27.8329 18.9527 27.5391 18.8231C27.2538 18.6848 27.0118 18.46 26.813 18.1489C26.7179 17.9933 26.6098 17.7642 26.4888 17.4617C26.3678 17.1592 26.2511 16.9474 26.1388 16.8264C26.0264 16.6967 25.8708 16.6319 25.672 16.6319C25.5164 16.6319 25.3911 16.6578 25.296 16.7097C25.2009 16.7615 25.1318 16.8566 25.0885 16.9949C25.0453 17.1246 25.0194 17.2326 25.0108 17.3191C25.0021 17.4055 24.9935 17.5568 24.9848 17.7729C24.9675 18.4644 25.0021 19.4022 25.0885 20.5864C25.1058 20.9235 25.1836 21.1958 25.3219 21.4032C25.4602 21.6021 25.7541 21.8095 26.2036 22.0256C26.8173 22.3368 27.2322 22.6479 27.4483 22.9591C27.6644 23.2617 27.7724 23.7544 27.7724 24.4372C27.7724 24.8089 27.7335 25.1157 27.6557 25.3578C27.5866 25.5912 27.4569 25.8029 27.2668 25.9931C27.0766 26.1833 26.8 26.3302 26.437 26.4339C26.0739 26.529 25.6288 26.5982 25.1015 26.6414C24.5742 26.6932 23.913 26.7192 23.1178 26.7192Z" fill="white"/>
<path d="M39.2989 27.0433C36.7836 27.0433 34.9079 26.3518 33.6718 24.9688C32.4358 23.5858 31.8177 21.6755 31.8177 19.238C31.8177 18.3045 31.9128 17.4358 32.103 16.6319C32.2931 15.828 32.587 15.0933 32.9846 14.4277C33.3909 13.7535 33.8922 13.183 34.4886 12.7163C35.0851 12.2495 35.8025 11.8908 36.6409 11.6401C37.488 11.3808 38.4259 11.2555 39.4545 11.2641C40.6992 11.2727 41.797 11.4759 42.7478 11.8735C43.6986 12.2711 44.4722 12.8243 45.0686 13.5331C45.665 14.2419 46.1145 15.076 46.4171 16.0355C46.7196 16.9949 46.8708 18.0624 46.8708 19.238C46.8708 21.6582 46.2355 23.5642 44.9649 24.9558C43.6943 26.3475 41.8056 27.0433 39.2989 27.0433ZM40.2065 22.259C41.5549 21.9564 41.9266 20.7895 41.3215 18.7583C40.9499 17.5741 40.5566 16.7659 40.1417 16.3337C39.7354 15.8928 39.1995 15.7632 38.5339 15.9447C37.2633 16.2732 36.9003 17.5654 37.4448 19.8214C37.7041 20.8328 38.0585 21.5329 38.508 21.9219C38.9661 22.3108 39.5323 22.4232 40.2065 22.259Z" fill="white"/>
<path d="M52.5239 26.7192C51.6336 26.7192 50.9032 26.6889 50.3327 26.6284C49.7622 26.5679 49.2954 26.4815 48.9324 26.3691C48.5694 26.2567 48.2971 26.0838 48.1156 25.8505C47.9427 25.6171 47.826 25.3664 47.7655 25.0985C47.7136 24.8305 47.6877 24.4675 47.6877 24.0093C47.6877 23.5339 47.7568 23.1536 47.8951 22.8684C48.0334 22.5831 48.2755 22.2849 48.6212 21.9737C49.0448 21.6021 49.2998 21.2477 49.3862 20.9106C49.4726 20.5648 49.5158 19.9468 49.5158 19.0565C49.5158 18.9182 49.5158 18.8101 49.5158 18.7323C49.5158 18.5422 49.5158 18.3347 49.5158 18.11C49.5245 17.8852 49.5288 17.7167 49.5288 17.6043C49.5375 17.4833 49.5375 17.3536 49.5288 17.2153C49.5288 17.077 49.5158 16.9776 49.4899 16.9171C49.4726 16.8566 49.4467 16.7961 49.4121 16.7356C49.3775 16.6665 49.3257 16.6232 49.2565 16.606C49.1874 16.58 49.1053 16.5627 49.0102 16.5541C48.9151 16.5368 48.7941 16.5282 48.6471 16.5282C48.4224 16.5368 48.2322 16.5152 48.0767 16.4633C47.9297 16.4115 47.813 16.351 47.7266 16.2818C47.6401 16.2127 47.5667 16.0916 47.5062 15.9188C47.4543 15.7373 47.4154 15.586 47.3895 15.465C47.3722 15.3353 47.3463 15.1235 47.3117 14.8297C47.2339 14.2505 47.2555 13.7967 47.3765 13.4683C47.4975 13.1312 47.7871 12.7508 48.2452 12.3273C48.6169 12.0075 48.8027 11.6099 48.8027 11.1344C48.8027 10.4862 48.9367 9.86813 49.2047 9.28036C49.4726 8.68394 49.8486 8.15667 50.3327 7.69855C50.8254 7.23178 51.452 6.8601 52.2127 6.5835C52.9734 6.3069 53.8118 6.1686 54.728 6.1686C57.9954 6.1686 59.6291 7.18856 59.6291 9.22849C59.6291 10.0497 59.4173 10.672 58.9937 11.0955C58.5702 11.5104 57.9695 11.7179 57.1915 11.7179C56.8285 11.7179 56.5476 11.7093 56.3487 11.692C56.1586 11.6747 55.9814 11.6487 55.8172 11.6142C55.6616 11.5796 55.5362 11.5061 55.4412 11.3938C55.3547 11.2814 55.2769 11.1647 55.2078 11.0437C55.1386 10.914 55.0479 10.7152 54.9355 10.4473C54.7972 10.1534 54.6459 9.9416 54.4817 9.81195C54.3261 9.68229 54.123 9.63043 53.8723 9.65636C53.7945 9.665 53.721 9.67797 53.6519 9.69526C53.5914 9.71254 53.5352 9.7428 53.4833 9.78602C53.4401 9.82924 53.4012 9.86813 53.3666 9.90271C53.3407 9.92864 53.3148 9.97618 53.2888 10.0453C53.2716 10.1145 53.2543 10.1663 53.237 10.2009C53.2283 10.2355 53.2197 10.3046 53.2111 10.4084C53.2111 10.5034 53.2111 10.5726 53.2111 10.6158C53.2111 10.6504 53.2111 10.7282 53.2111 10.8492C53.2111 10.9702 53.2111 11.048 53.2111 11.0826C53.2111 11.3419 53.2154 11.5493 53.224 11.7049C53.2327 11.8605 53.2672 11.9988 53.3277 12.1198C53.3883 12.2408 53.4444 12.3273 53.4963 12.3791C53.5568 12.431 53.6692 12.4742 53.8334 12.5088C54.0063 12.5434 54.1662 12.565 54.3131 12.5736C54.4601 12.5736 54.6935 12.5736 55.0133 12.5736C56.1024 12.5736 56.7766 12.6125 57.0359 12.6903C57.4076 12.794 57.6323 13.049 57.7101 13.4553C57.762 13.7319 57.7663 14.1554 57.7231 14.7259C57.6972 15.0371 57.6799 15.2662 57.6712 15.4131C57.6626 15.5601 57.6367 15.7286 57.5935 15.9188C57.5589 16.1003 57.5329 16.2256 57.5157 16.2948C57.507 16.3553 57.4595 16.4331 57.373 16.5282C57.2866 16.6146 57.2174 16.6665 57.1656 16.6837C57.1224 16.701 57.0186 16.7226 56.8544 16.7486C56.6988 16.7745 56.5648 16.7875 56.4525 16.7875C56.3487 16.7875 56.1672 16.7875 55.9079 16.7875C55.8388 16.7875 55.7869 16.7875 55.7523 16.7875C55.5535 16.7875 55.3893 16.8134 55.2596 16.8653C55.1386 16.9085 55.0435 16.956 54.9744 17.0079C54.9139 17.0598 54.8707 17.1678 54.8447 17.332C54.8188 17.4876 54.8058 17.6173 54.8058 17.721C54.8058 17.8247 54.8102 18.0149 54.8188 18.2915C54.8274 18.5594 54.8318 18.7755 54.8318 18.9398C54.8318 19.0262 54.8318 19.1429 54.8318 19.2898C54.8231 20.1196 54.8879 20.6988 55.0262 21.0272C55.1646 21.3471 55.5492 21.6453 56.1802 21.9219C56.6815 22.1466 57.023 22.3973 57.2045 22.6739C57.3946 22.9505 57.4897 23.3956 57.4897 24.0093C57.4897 24.4502 57.4595 24.8046 57.399 25.0725C57.3385 25.3318 57.2174 25.5825 57.0359 25.8245C56.8544 26.0579 56.5778 26.2351 56.2061 26.3561C55.8344 26.4685 55.3504 26.5549 54.754 26.6154C54.1662 26.6846 53.4228 26.7192 52.5239 26.7192Z" fill="white"/>
<path d="M62.9094 11.0048C61.6906 11.0048 60.7527 10.7887 60.0958 10.3565C59.4389 9.92432 59.1104 9.31925 59.1104 8.54131C59.1104 7.71151 59.4173 7.05891 60.031 6.5835C60.6533 6.09945 61.5653 5.85742 62.7667 5.85742C63.9855 5.85742 64.8974 6.10377 65.5025 6.59646C66.1076 7.08052 66.4101 7.73744 66.4101 8.56724C66.4101 10.1923 65.2432 11.0048 62.9094 11.0048ZM62.663 26.7192C61.8505 26.7192 61.2714 26.7105 60.9256 26.6932C60.5885 26.6846 60.2039 26.6414 59.7717 26.5636C59.3395 26.4944 59.0499 26.3734 58.903 26.2005C58.756 26.0277 58.6264 25.7943 58.514 25.5004C58.4103 25.2065 58.3584 24.8175 58.3584 24.3335C58.3584 23.4259 58.6523 22.7344 59.2401 22.259C59.534 21.9997 59.7457 21.7404 59.8754 21.481C60.0051 21.2217 60.0958 20.8111 60.1477 20.2493C60.165 20.0332 60.1736 19.1126 60.1736 17.4876C60.1736 17.1073 60.1217 16.8566 60.018 16.7356C59.9143 16.606 59.7068 16.5282 59.3957 16.5022C58.9894 16.4849 58.6912 16.3812 58.501 16.1911C58.3195 16.0009 58.2288 15.6897 58.2288 15.2575C58.2288 14.8253 58.3541 14.3802 58.6048 13.9221C58.8554 13.4553 59.1839 13.0577 59.5902 12.7292C60.4891 12.0204 61.5826 11.666 62.8705 11.666C63.9682 11.666 64.7635 11.8778 65.2561 12.3014C65.7575 12.7163 66.0082 13.3473 66.0082 14.1943C66.0082 14.713 65.9001 15.4434 65.684 16.3855C65.4679 17.3277 65.3556 18.0927 65.3469 18.6805C65.3469 19.6226 65.3642 20.3141 65.3988 20.755C65.4247 21.1094 65.4766 21.386 65.5544 21.5848C65.6408 21.7836 65.7834 21.9824 65.9822 22.1812C66.2502 22.4491 66.4447 22.7344 66.5657 23.0369C66.6953 23.3395 66.7602 23.763 66.7602 24.3076C66.7602 24.9731 66.6521 25.4701 66.436 25.7986C66.2286 26.1271 65.8353 26.3648 65.2561 26.5117C64.6857 26.65 63.8213 26.7192 62.663 26.7192Z" fill="white"/>
<path d="M73.9561 26.9137C72.3829 26.9137 71.0993 26.4685 70.1053 25.5782C69.1113 24.6879 68.6143 23.4864 68.6143 21.9737C68.6143 21.4897 68.6618 20.7852 68.7569 19.8603C68.8606 18.9354 68.9125 18.1964 68.9125 17.6432C68.9125 17.5568 68.9081 17.4876 68.8995 17.4358C68.8995 17.3752 68.8952 17.3191 68.8865 17.2672C68.8865 17.2153 68.8736 17.1721 68.8476 17.1375C68.8304 17.103 68.8174 17.0727 68.8087 17.0468C68.8001 17.0209 68.7699 17.0036 68.718 16.9949C68.6748 16.9776 68.6445 16.9647 68.6272 16.956C68.6099 16.9387 68.5624 16.9301 68.4846 16.9301C68.4068 16.9215 68.3506 16.9171 68.316 16.9171C68.2901 16.9171 68.221 16.9171 68.1086 16.9171C67.9962 16.9085 67.9098 16.9042 67.8493 16.9042C67.6591 16.8955 67.4992 16.8523 67.3696 16.7745C67.2399 16.6967 67.1405 16.6103 67.0714 16.5152C67.0108 16.4201 66.9633 16.2688 66.9287 16.0614C66.8941 15.8539 66.8725 15.6811 66.8639 15.5428C66.8639 15.3958 66.8639 15.1668 66.8639 14.8556C66.8639 14.5531 66.8682 14.311 66.8769 14.1295C66.8855 13.9393 66.9287 13.7578 67.0065 13.585C67.0843 13.4121 67.1491 13.2867 67.201 13.209C67.2529 13.1225 67.3825 13.0101 67.59 12.8718C67.7974 12.7249 67.966 12.6212 68.0956 12.5607C68.2339 12.4915 68.4932 12.3619 68.8736 12.1717C69.2625 11.9729 69.591 11.8043 69.859 11.666C70.0491 11.5623 70.356 11.3938 70.7795 11.1604C71.2031 10.9184 71.497 10.7584 71.6612 10.6806C71.8254 10.5942 72.0502 10.4905 72.3354 10.3695C72.6206 10.2398 72.8713 10.1534 73.0874 10.1102C73.3121 10.0669 73.5412 10.0453 73.7746 10.0453C74.0771 10.0453 74.3235 10.1274 74.5136 10.2917C74.7038 10.4559 74.7989 10.7195 74.7989 11.0826C74.7989 11.2468 74.8032 11.3851 74.8118 11.4975C74.8291 11.6012 74.8551 11.692 74.8896 11.7698C74.9242 11.8389 74.9717 11.8908 75.0323 11.9254C75.0928 11.9599 75.1662 11.9902 75.2527 12.0161C75.3391 12.0334 75.4385 12.042 75.5509 12.042C75.6719 12.042 75.8145 12.042 75.9788 12.042C76.0998 12.042 76.1948 12.042 76.264 12.042C76.5406 12.042 76.7437 12.0464 76.8734 12.055C77.003 12.055 77.1629 12.0637 77.3531 12.0809C77.5433 12.0896 77.6773 12.1112 77.7551 12.1458C77.8328 12.1803 77.9236 12.2279 78.0273 12.2884C78.1397 12.3489 78.2132 12.4267 78.2477 12.5218C78.2823 12.6082 78.3126 12.7206 78.3385 12.8589C78.3731 12.9885 78.3904 13.1484 78.3904 13.3386C78.3904 13.6152 78.3731 13.9869 78.3385 14.4537C78.3039 14.9118 78.278 15.2748 78.2607 15.5428C78.2521 15.7934 78.2218 16.0095 78.17 16.1911C78.1267 16.3639 78.0489 16.5065 77.9366 16.6189C77.8242 16.7226 77.7161 16.8091 77.6124 16.8782C77.5173 16.9387 77.3574 16.982 77.1327 17.0079C76.908 17.0338 76.7178 17.0511 76.5622 17.0598C76.4153 17.0598 76.1732 17.0598 75.8361 17.0598C75.5336 17.0598 75.3175 17.0641 75.1879 17.0727C75.0582 17.0727 74.9199 17.0857 74.7729 17.1116C74.6346 17.1289 74.5439 17.1548 74.5007 17.1894C74.4661 17.224 74.4272 17.2845 74.384 17.3709C74.3494 17.4487 74.3321 17.5395 74.3321 17.6432C74.3321 17.7469 74.3321 17.8896 74.3321 18.0711C74.3321 18.2094 74.3321 18.3217 74.3321 18.4082C74.3321 18.486 74.3321 18.62 74.3321 18.8101C74.3321 19.0003 74.3191 19.2769 74.2932 19.6399C74.2759 20.003 74.2673 20.2666 74.2673 20.4308C74.2673 20.8284 74.3753 21.1353 74.5914 21.3514C74.8162 21.5675 75.1187 21.6755 75.499 21.6755C75.7411 21.6755 76.0954 21.6453 76.5622 21.5848C77.029 21.5243 77.3531 21.494 77.5346 21.494C77.8112 21.494 78.01 21.5934 78.1311 21.7922C78.2607 21.9824 78.3212 22.3411 78.3126 22.8684C78.2953 24.0785 77.9063 25.0552 77.1457 25.7986C76.385 26.542 75.3218 26.9137 73.9561 26.9137Z" fill="white"/>
<rect x="82.4414" width="38.401" height="32.9011" rx="6.44836" fill="white"/>
<path d="M90.2619 26.3207C87.642 26.3207 86.332 24.9007 86.332 22.0605C86.332 20.7808 86.744 19.7694 87.5678 19.0264C88.4 18.275 89.5657 17.8994 91.0652 17.8994C91.6007 17.8994 92.1074 17.9365 92.5852 18.0108C93.0713 18.0851 93.3679 18.1223 93.475 18.1223C93.6563 18.1223 93.784 18.1058 93.8581 18.0728C93.9323 18.0315 93.9899 17.92 94.0311 17.7384C94.0806 17.5485 94.097 17.2471 94.0806 16.8343C94.0558 15.6124 93.5903 15.0014 92.6841 15.0014C92.231 15.0014 91.9014 15.0799 91.6954 15.2367C91.4895 15.3854 91.3329 15.6454 91.2258 16.017C91.0775 16.5206 90.8592 16.8797 90.5709 17.0944C90.2907 17.3091 89.8582 17.4164 89.2733 17.4164C87.4855 17.4164 86.5916 16.7476 86.5916 15.4101C86.5916 14.3203 87.1394 13.3997 88.2352 12.6484C89.5369 11.7155 91.3865 11.249 93.784 11.249C95.5882 11.249 96.9435 11.637 97.8498 12.4131C98.7643 13.1892 99.2215 14.3162 99.2215 15.794C99.2215 16.4628 99.1638 17.4164 99.0485 18.6548C98.9414 19.8933 98.8879 20.5785 98.8879 20.7106C98.8879 21.0987 99.0485 21.2927 99.3698 21.2927H100.05C100.346 21.2927 100.556 21.3959 100.68 21.6023C100.803 21.8087 100.865 22.139 100.865 22.5931C100.865 23.0306 100.799 23.4641 100.667 23.8934C100.536 24.3145 100.342 24.7108 100.087 25.0823C99.8394 25.4456 99.5016 25.7387 99.0732 25.9616C98.653 26.1845 98.1793 26.296 97.652 26.296C96.5069 26.296 95.6624 25.9657 95.1186 25.3052C94.9868 25.1484 94.8591 24.975 94.7355 24.7851C94.6202 24.5952 94.5296 24.4631 94.4637 24.3888C94.3977 24.3062 94.3112 24.2649 94.2041 24.2649C94.0723 24.2649 93.9611 24.3021 93.8705 24.3764C93.7881 24.4507 93.6851 24.5869 93.5615 24.7851C93.4379 24.9832 93.3349 25.1318 93.2526 25.2309C92.9724 25.6107 92.6182 25.8873 92.1898 26.0607C91.7696 26.2341 91.127 26.3207 90.2619 26.3207ZM92.7212 22.5311C93.1661 22.5311 93.5162 22.3866 93.7716 22.0977C94.027 21.8087 94.1547 21.3959 94.1547 20.8592C94.1547 20.4547 94.1341 20.2194 94.0929 20.1533C94.0105 20.0543 93.7634 20.0047 93.3514 20.0047C92.9724 20.0047 92.6511 20.1327 92.3875 20.3886C92.1239 20.6446 91.9797 20.979 91.955 21.3918C91.9055 21.8046 91.9344 22.0977 92.0415 22.2711C92.1568 22.4444 92.3834 22.5311 92.7212 22.5311Z" fill="#470E81"/>
<path d="M104.919 26.1845C104.383 26.1845 103.942 26.1763 103.596 26.1597C103.25 26.1432 102.917 26.102 102.595 26.0359C102.274 25.9781 102.023 25.8955 101.841 25.7882C101.66 25.6809 101.5 25.5364 101.359 25.3548C101.228 25.1731 101.133 24.9543 101.075 24.6984C101.026 24.4425 101.001 24.1287 101.001 23.7572C101.001 23.237 101.046 22.8325 101.137 22.5435C101.228 22.2463 101.434 21.9573 101.755 21.6766C102.019 21.4537 102.192 21.2019 102.274 20.9212C102.356 20.6322 102.418 20.1822 102.459 19.5713C102.476 18.9933 102.484 18.0893 102.484 16.8591C102.484 15.0014 102.476 13.7506 102.459 13.1066C102.443 12.7103 102.381 12.4544 102.274 12.3388C102.175 12.215 101.953 12.1407 101.607 12.1159C101.162 12.0994 100.824 11.9962 100.593 11.8063C100.354 11.6164 100.235 11.2861 100.235 10.8155C100.235 9.93211 100.614 9.05282 101.372 8.17766C101.776 7.69054 102.266 7.3025 102.842 7.01353C103.419 6.72456 104.045 6.58008 104.721 6.58008C105.668 6.58008 106.439 6.84015 107.032 7.36029C107.633 7.88044 107.934 8.64414 107.934 9.6514C107.934 9.92385 107.864 11.1829 107.724 13.4286C107.477 16.6898 107.386 18.9149 107.452 20.1038C107.477 20.4836 107.53 20.7726 107.613 20.9707C107.695 21.1689 107.852 21.3711 108.082 21.5775C108.371 21.8252 108.577 22.0936 108.7 22.3825C108.832 22.6715 108.898 23.076 108.898 23.5962C108.898 24.0998 108.844 24.5044 108.737 24.8099C108.638 25.1071 108.445 25.3672 108.156 25.5901C107.868 25.813 107.464 25.9657 106.945 26.0483C106.435 26.1391 105.759 26.1845 104.919 26.1845Z" fill="#470E81"/>
<path d="M112.976 26.1845C112.441 26.1845 112 26.1763 111.654 26.1597C111.308 26.1432 110.974 26.102 110.653 26.0359C110.331 25.9781 110.08 25.8955 109.899 25.7882C109.718 25.6809 109.557 25.5364 109.417 25.3548C109.285 25.1731 109.19 24.9543 109.133 24.6984C109.083 24.4425 109.059 24.1287 109.059 23.7572C109.059 23.237 109.104 22.8325 109.194 22.5435C109.285 22.2463 109.491 21.9573 109.812 21.6766C110.076 21.4537 110.249 21.2019 110.331 20.9212C110.414 20.6322 110.476 20.1822 110.517 19.5713C110.533 18.9933 110.542 18.0893 110.542 16.8591C110.542 15.0014 110.533 13.7506 110.517 13.1066C110.5 12.7103 110.439 12.4544 110.331 12.3388C110.233 12.215 110.01 12.1407 109.664 12.1159C109.219 12.0994 108.881 11.9962 108.651 11.8063C108.412 11.6164 108.292 11.2861 108.292 10.8155C108.292 9.93211 108.671 9.05282 109.429 8.17766C109.833 7.69054 110.323 7.3025 110.9 7.01353C111.477 6.72456 112.103 6.58008 112.778 6.58008C113.726 6.58008 114.496 6.84015 115.089 7.36029C115.691 7.88044 115.991 8.64414 115.991 9.6514C115.991 9.92385 115.921 11.1829 115.781 13.4286C115.534 16.6898 115.444 18.9149 115.509 20.1038C115.534 20.4836 115.588 20.7726 115.67 20.9707C115.753 21.1689 115.909 21.3711 116.14 21.5775C116.428 21.8252 116.634 22.0936 116.758 22.3825C116.889 22.6715 116.955 23.076 116.955 23.5962C116.955 24.0998 116.902 24.5044 116.795 24.8099C116.696 25.1071 116.502 25.3672 116.214 25.5901C115.926 25.813 115.522 25.9657 115.003 26.0483C114.492 26.1391 113.816 26.1845 112.976 26.1845Z" fill="#470E81"/>
</g>
<defs>
<clipPath id="clip0_2776_13063">
<rect width="120.841" height="32.9011" fill="white"/>
</clipPath>
</defs>
</svg>
