<svg width="122" height="33" viewBox="0 0 122 33" fill="none" xmlns="http://www.w3.org/2000/svg">
<g clip-path="url(#clip0_1111_2149)">
<path d="M5.24723 26.8618C4.51251 26.8531 3.90312 26.8359 3.41907 26.8099C2.94366 26.784 2.52444 26.7235 2.1614 26.6284C1.80701 26.542 1.53473 26.4426 1.34456 26.3302C1.1544 26.2092 1.00313 26.0363 0.890766 25.8116C0.778397 25.5782 0.704925 25.3405 0.670349 25.0985C0.644418 24.8478 0.631452 24.515 0.631452 24.1001C0.631452 23.4778 0.696281 23.0067 0.825937 22.6868C0.955594 22.367 1.21059 22.0775 1.59091 21.8181C1.98852 21.5588 2.25216 21.2952 2.38182 21.0272C2.52012 20.7506 2.58927 20.3055 2.58927 19.6918V15.063C2.58927 14.5358 2.52876 14.1209 2.40775 13.8183C2.28673 13.5158 2.04903 13.2608 1.69464 13.0534C1.45261 12.9064 1.26245 12.7638 1.12415 12.6255C0.985847 12.4786 0.860512 12.2408 0.748143 11.9124C0.635774 11.5753 0.57959 11.1561 0.57959 10.6547C0.57959 10.2312 0.592556 9.88974 0.618487 9.63043C0.644418 9.36247 0.700603 9.11612 0.78704 8.89139C0.882122 8.658 0.998813 8.48513 1.13711 8.37276C1.27541 8.25175 1.47422 8.15234 1.73353 8.07455C2.00149 7.98811 2.30402 7.93193 2.64113 7.906C2.97824 7.88006 3.4061 7.8671 3.92473 7.8671C3.96795 7.8671 4.82368 7.86278 6.49193 7.85413C8.16882 7.83685 9.38327 7.83252 10.1353 7.84117C12.7889 7.84117 14.7078 8.31658 15.892 9.26739C17.0849 10.2182 17.6726 11.7265 17.6554 13.7924C17.6554 15.8237 17.0503 17.3969 15.8402 18.5119C14.63 19.627 12.7716 20.1672 10.2649 20.1326C9.56479 20.124 9.06345 20.1413 8.76092 20.1845C8.46703 20.219 8.27687 20.2839 8.19043 20.379C8.10399 20.474 8.06077 20.6426 8.06077 20.8846C8.06077 21.1526 8.12992 21.3557 8.26822 21.494C8.41517 21.6323 8.76524 21.8181 9.31844 22.0515C9.84571 22.3022 10.1915 22.5918 10.3557 22.9202C10.5286 23.24 10.615 23.6766 10.615 24.2298C10.615 24.6879 10.5761 25.0552 10.4983 25.3318C10.4292 25.5998 10.2952 25.8461 10.0964 26.0709C9.90622 26.287 9.60369 26.4469 9.18879 26.5506C8.77388 26.6543 8.25958 26.7321 7.64587 26.784C7.03217 26.8359 6.23262 26.8618 5.24723 26.8618ZM10.1353 16.2948C10.8268 16.2948 11.2849 16.1651 11.5096 15.9058C11.7344 15.6465 11.8251 15.1884 11.7819 14.5314C11.7301 13.7708 11.4837 13.1744 11.0429 12.7422C10.6107 12.3014 9.98833 12.0939 9.17582 12.1198C8.95973 12.1285 8.79117 12.1414 8.67016 12.1587C8.54915 12.1674 8.4411 12.1976 8.34602 12.2495C8.25094 12.3014 8.18611 12.3489 8.15153 12.3921C8.11696 12.4353 8.09103 12.5261 8.07374 12.6644C8.05645 12.8027 8.04781 12.928 8.04781 13.0404C8.05645 13.1441 8.0651 13.33 8.07374 13.5979C8.08238 13.8659 8.08671 14.1079 8.08671 14.324C8.08671 14.3413 8.08671 14.3629 8.08671 14.3888C8.08671 15.3051 8.17746 15.8583 8.35898 16.0484C8.54915 16.2386 9.14124 16.3207 10.1353 16.2948Z" fill="#58248C"/>
<path d="M23.6974 26.7192C21.5451 26.7192 20.1837 26.6111 19.6132 26.395C19.0427 26.1703 18.7574 25.5263 18.7574 24.4631C18.7574 23.9359 18.8179 23.4994 18.939 23.1536C19.06 22.8079 19.2934 22.5183 19.6391 22.2849C19.933 22.0947 20.1491 21.8959 20.2874 21.6885C20.4257 21.4724 20.5121 21.1872 20.5467 20.8328C20.5813 20.3746 20.5986 19.3201 20.5986 17.6691C20.5986 17.2629 20.5208 16.9992 20.3652 16.8782C20.2096 16.7486 19.9244 16.6751 19.5094 16.6578C19.0081 16.6319 18.6278 16.5238 18.3685 16.3337C18.1178 16.1435 17.9925 15.8107 17.9925 15.3353C17.9925 14.2289 18.4636 13.2824 19.4057 12.4958C20.3047 11.7698 21.2944 11.4067 22.3749 11.4067C23.0404 11.4067 23.5634 11.571 23.9437 11.8994C24.3327 12.2192 24.5358 12.6471 24.5531 13.183C24.5531 13.2176 24.5531 13.2695 24.5531 13.3386C24.5531 13.4078 24.5531 13.4596 24.5531 13.4942C24.5531 13.5201 24.5531 13.559 24.5531 13.6109C24.5531 13.6627 24.5531 13.7016 24.5531 13.7276C24.5617 13.7449 24.5704 13.7751 24.579 13.8183C24.5877 13.8529 24.5963 13.8788 24.605 13.8961C24.6222 13.9048 24.6395 13.9221 24.6568 13.948C24.6741 13.9739 24.6957 13.9912 24.7216 13.9999C24.7476 13.9999 24.7778 14.0042 24.8124 14.0128C24.847 14.0215 24.8859 14.0258 24.9291 14.0258C24.9637 14.0258 24.9939 14.0215 25.0199 14.0128C25.0544 14.0042 25.089 13.9912 25.1236 13.9739C25.1582 13.948 25.1884 13.9264 25.2143 13.9091C25.2403 13.8832 25.2662 13.8486 25.2921 13.8054C25.3267 13.7622 25.357 13.7233 25.3829 13.6887C25.4088 13.6541 25.4391 13.6022 25.4736 13.5331C25.5169 13.4639 25.5514 13.4034 25.5774 13.3516C25.612 13.2997 25.6552 13.2262 25.707 13.1312C25.7589 13.0361 25.8064 12.954 25.8497 12.8848C26.472 11.8043 27.4271 11.2641 28.7151 11.2641C29.8647 11.2641 30.7161 11.6487 31.2693 12.418C31.8225 13.1873 32.0905 14.2721 32.0732 15.6724C32.0559 16.822 31.8311 17.6691 31.399 18.2137C30.9668 18.7496 30.258 19.0176 29.2726 19.0176C28.7972 19.0176 28.4125 18.9527 28.1186 18.8231C27.8334 18.6848 27.5914 18.46 27.3926 18.1489C27.2975 17.9933 27.1894 17.7642 27.0684 17.4617C26.9474 17.1592 26.8307 16.9474 26.7184 16.8264C26.606 16.6967 26.4504 16.6319 26.2516 16.6319C26.096 16.6319 25.9707 16.6578 25.8756 16.7097C25.7805 16.7615 25.7114 16.8566 25.6681 16.9949C25.6249 17.1246 25.599 17.2326 25.5903 17.3191C25.5817 17.4055 25.5731 17.5568 25.5644 17.7729C25.5471 18.4644 25.5817 19.4022 25.6681 20.5864C25.6854 20.9235 25.7632 21.1958 25.9015 21.4032C26.0398 21.6021 26.3337 21.8095 26.7832 22.0256C27.3969 22.3368 27.8118 22.6479 28.0279 22.9591C28.244 23.2617 28.352 23.7544 28.352 24.4372C28.352 24.8089 28.3131 25.1157 28.2353 25.3578C28.1662 25.5912 28.0365 25.8029 27.8464 25.9931C27.6562 26.1833 27.3796 26.3302 27.0166 26.4339C26.6535 26.529 26.2084 26.5982 25.6811 26.6414C25.1538 26.6932 24.4926 26.7192 23.6974 26.7192Z" fill="#58248C"/>
<path d="M39.8785 27.0433C37.3632 27.0433 35.4875 26.3518 34.2514 24.9688C33.0153 23.5858 32.3973 21.6755 32.3973 19.238C32.3973 18.3045 32.4924 17.4358 32.6826 16.6319C32.8727 15.828 33.1666 15.0933 33.5642 14.4277C33.9705 13.7535 34.4718 13.183 35.0682 12.7163C35.6647 12.2495 36.3821 11.8908 37.2205 11.6401C38.0676 11.3808 39.0055 11.2555 40.0341 11.2641C41.2788 11.2727 42.3765 11.4759 43.3274 11.8735C44.2782 12.2711 45.0518 12.8243 45.6482 13.5331C46.2446 14.2419 46.6941 15.076 46.9966 16.0355C47.2992 16.9949 47.4504 18.0624 47.4504 19.238C47.4504 21.6582 46.8151 23.5642 45.5445 24.9558C44.2739 26.3475 42.3852 27.0433 39.8785 27.0433ZM40.7861 22.259C42.1345 21.9564 42.5062 20.7895 41.9011 18.7583C41.5295 17.5741 41.1362 16.7659 40.7213 16.3337C40.315 15.8928 39.7791 15.7632 39.1135 15.9447C37.8429 16.2732 37.4799 17.5654 38.0244 19.8214C38.2837 20.8328 38.6381 21.5329 39.0876 21.9219C39.5457 22.3108 40.1119 22.4232 40.7861 22.259Z" fill="#58248C"/>
<path d="M53.1035 26.7192C52.2132 26.7192 51.4828 26.6889 50.9123 26.6284C50.3418 26.5679 49.875 26.4815 49.512 26.3691C49.1489 26.2567 48.8767 26.0838 48.6951 25.8505C48.5223 25.6171 48.4056 25.3664 48.3451 25.0985C48.2932 24.8305 48.2673 24.4675 48.2673 24.0093C48.2673 23.5339 48.3364 23.1536 48.4747 22.8684C48.613 22.5831 48.8551 22.2849 49.2008 21.9737C49.6244 21.6021 49.8793 21.2477 49.9658 20.9106C50.0522 20.5648 50.0954 19.9468 50.0954 19.0565C50.0954 18.9182 50.0954 18.8101 50.0954 18.7323C50.0954 18.5422 50.0954 18.3347 50.0954 18.11C50.1041 17.8852 50.1084 17.7167 50.1084 17.6043C50.117 17.4833 50.117 17.3536 50.1084 17.2153C50.1084 17.077 50.0954 16.9776 50.0695 16.9171C50.0522 16.8566 50.0263 16.7961 49.9917 16.7356C49.9571 16.6665 49.9053 16.6232 49.8361 16.606C49.767 16.58 49.6849 16.5627 49.5898 16.5541C49.4947 16.5368 49.3737 16.5282 49.2267 16.5282C49.002 16.5368 48.8118 16.5152 48.6562 16.4633C48.5093 16.4115 48.3926 16.351 48.3062 16.2818C48.2197 16.2127 48.1463 16.0916 48.0858 15.9188C48.0339 15.7373 47.995 15.586 47.9691 15.465C47.9518 15.3353 47.9258 15.1235 47.8913 14.8297C47.8135 14.2505 47.8351 13.7967 47.9561 13.4683C48.0771 13.1312 48.3667 12.7508 48.8248 12.3273C49.1965 12.0075 49.3823 11.6099 49.3823 11.1344C49.3823 10.4862 49.5163 9.86813 49.7843 9.28036C50.0522 8.68394 50.4282 8.15667 50.9123 7.69855C51.405 7.23178 52.0316 6.8601 52.7923 6.5835C53.5529 6.3069 54.3914 6.1686 55.3076 6.1686C58.575 6.1686 60.2086 7.18856 60.2086 9.22849C60.2086 10.0497 59.9969 10.672 59.5733 11.0955C59.1498 11.5104 58.549 11.7179 57.7711 11.7179C57.4081 11.7179 57.1271 11.7093 56.9283 11.692C56.7382 11.6747 56.561 11.6487 56.3967 11.6142C56.2412 11.5796 56.1158 11.5061 56.0207 11.3938C55.9343 11.2814 55.8565 11.1647 55.7874 11.0437C55.7182 10.914 55.6274 10.7152 55.5151 10.4473C55.3768 10.1534 55.2255 9.9416 55.0613 9.81195C54.9057 9.68229 54.7026 9.63043 54.4519 9.65636C54.3741 9.665 54.3006 9.67797 54.2315 9.69526C54.171 9.71254 54.1148 9.7428 54.0629 9.78602C54.0197 9.82924 53.9808 9.86813 53.9462 9.90271C53.9203 9.92864 53.8944 9.97618 53.8684 10.0453C53.8512 10.1145 53.8339 10.1663 53.8166 10.2009C53.8079 10.2355 53.7993 10.3046 53.7906 10.4084C53.7906 10.5034 53.7906 10.5726 53.7906 10.6158C53.7906 10.6504 53.7906 10.7282 53.7906 10.8492C53.7906 10.9702 53.7906 11.048 53.7906 11.0826C53.7906 11.3419 53.795 11.5493 53.8036 11.7049C53.8123 11.8605 53.8468 11.9988 53.9073 12.1198C53.9678 12.2408 54.024 12.3273 54.0759 12.3791C54.1364 12.431 54.2488 12.4742 54.413 12.5088C54.5859 12.5434 54.7458 12.565 54.8927 12.5736C55.0397 12.5736 55.2731 12.5736 55.5929 12.5736C56.682 12.5736 57.3562 12.6125 57.6155 12.6903C57.9872 12.794 58.2119 13.049 58.2897 13.4553C58.3416 13.7319 58.3459 14.1554 58.3027 14.7259C58.2768 15.0371 58.2595 15.2662 58.2508 15.4131C58.2422 15.5601 58.2163 15.7286 58.173 15.9188C58.1385 16.1003 58.1125 16.2256 58.0952 16.2948C58.0866 16.3553 58.0391 16.4331 57.9526 16.5282C57.8662 16.6146 57.797 16.6665 57.7452 16.6837C57.702 16.701 57.5982 16.7226 57.434 16.7486C57.2784 16.7745 57.1444 16.7875 57.0321 16.7875C56.9283 16.7875 56.7468 16.7875 56.4875 16.7875C56.4184 16.7875 56.3665 16.7875 56.3319 16.7875C56.1331 16.7875 55.9689 16.8134 55.8392 16.8653C55.7182 16.9085 55.6231 16.956 55.554 17.0079C55.4935 17.0598 55.4503 17.1678 55.4243 17.332C55.3984 17.4876 55.3854 17.6173 55.3854 17.721C55.3854 17.8247 55.3897 18.0149 55.3984 18.2915C55.407 18.5594 55.4114 18.7755 55.4114 18.9398C55.4114 19.0262 55.4114 19.1429 55.4114 19.2898C55.4027 20.1196 55.4675 20.6988 55.6058 21.0272C55.7441 21.3471 56.1288 21.6453 56.7598 21.9219C57.2611 22.1466 57.6026 22.3973 57.7841 22.6739C57.9742 22.9505 58.0693 23.3956 58.0693 24.0093C58.0693 24.4502 58.0391 24.8046 57.9786 25.0725C57.918 25.3318 57.797 25.5825 57.6155 25.8245C57.434 26.0579 57.1574 26.2351 56.7857 26.3561C56.414 26.4685 55.93 26.5549 55.3336 26.6154C54.7458 26.6846 54.0024 26.7192 53.1035 26.7192Z" fill="#58248C"/>
<path d="M63.489 11.0048C62.2702 11.0048 61.3323 10.7887 60.6754 10.3565C60.0185 9.92432 59.69 9.31925 59.69 8.54131C59.69 7.71151 59.9969 7.05891 60.6106 6.5835C61.2329 6.09945 62.1448 5.85742 63.3463 5.85742C64.5651 5.85742 65.477 6.10377 66.0821 6.59646C66.6872 7.08052 66.9897 7.73744 66.9897 8.56724C66.9897 10.1923 65.8228 11.0048 63.489 11.0048ZM63.2426 26.7192C62.4301 26.7192 61.851 26.7105 61.5052 26.6932C61.1681 26.6846 60.7835 26.6414 60.3513 26.5636C59.9191 26.4944 59.6295 26.3734 59.4826 26.2005C59.3356 26.0277 59.206 25.7943 59.0936 25.5004C58.9899 25.2065 58.938 24.8175 58.938 24.3335C58.938 23.4259 59.2319 22.7344 59.8197 22.259C60.1136 21.9997 60.3253 21.7404 60.455 21.481C60.5846 21.2217 60.6754 20.8111 60.7273 20.2493C60.7446 20.0332 60.7532 19.1126 60.7532 17.4876C60.7532 17.1073 60.7013 16.8566 60.5976 16.7356C60.4939 16.606 60.2864 16.5282 59.9753 16.5022C59.569 16.4849 59.2708 16.3812 59.0806 16.1911C58.8991 16.0009 58.8084 15.6897 58.8084 15.2575C58.8084 14.8253 58.9337 14.3802 59.1844 13.9221C59.435 13.4553 59.7635 13.0577 60.1698 12.7292C61.0687 12.0204 62.1621 11.666 63.4501 11.666C64.5478 11.666 65.343 11.8778 65.8357 12.3014C66.3371 12.7163 66.5878 13.3473 66.5878 14.1943C66.5878 14.713 66.4797 15.4434 66.2636 16.3855C66.0475 17.3277 65.9351 18.0927 65.9265 18.6805C65.9265 19.6226 65.9438 20.3141 65.9784 20.755C66.0043 21.1094 66.0562 21.386 66.134 21.5848C66.2204 21.7836 66.363 21.9824 66.5618 22.1812C66.8298 22.4491 67.0243 22.7344 67.1453 23.0369C67.2749 23.3395 67.3398 23.763 67.3398 24.3076C67.3398 24.9731 67.2317 25.4701 67.0156 25.7986C66.8082 26.1271 66.4149 26.3648 65.8357 26.5117C65.2653 26.65 64.4009 26.7192 63.2426 26.7192Z" fill="#58248C"/>
<path d="M74.5357 26.9137C72.9625 26.9137 71.6789 26.4685 70.6849 25.5782C69.6909 24.6879 69.1938 23.4864 69.1938 21.9737C69.1938 21.4897 69.2414 20.7852 69.3365 19.8603C69.4402 18.9354 69.4921 18.1964 69.4921 17.6432C69.4921 17.5568 69.4877 17.4876 69.4791 17.4358C69.4791 17.3752 69.4748 17.3191 69.4661 17.2672C69.4661 17.2153 69.4532 17.1721 69.4272 17.1375C69.4099 17.103 69.397 17.0727 69.3883 17.0468C69.3797 17.0209 69.3494 17.0036 69.2976 16.9949C69.2544 16.9776 69.2241 16.9647 69.2068 16.956C69.1895 16.9387 69.142 16.9301 69.0642 16.9301C68.9864 16.9215 68.9302 16.9171 68.8956 16.9171C68.8697 16.9171 68.8006 16.9171 68.6882 16.9171C68.5758 16.9085 68.4894 16.9042 68.4289 16.9042C68.2387 16.8955 68.0788 16.8523 67.9491 16.7745C67.8195 16.6967 67.7201 16.6103 67.6509 16.5152C67.5904 16.4201 67.5429 16.2688 67.5083 16.0614C67.4737 15.8539 67.4521 15.6811 67.4435 15.5428C67.4435 15.3958 67.4435 15.1668 67.4435 14.8556C67.4435 14.5531 67.4478 14.311 67.4565 14.1295C67.4651 13.9393 67.5083 13.7578 67.5861 13.585C67.6639 13.4121 67.7287 13.2867 67.7806 13.209C67.8325 13.1225 67.9621 13.0101 68.1696 12.8718C68.377 12.7249 68.5456 12.6212 68.6752 12.5607C68.8135 12.4915 69.0728 12.3619 69.4532 12.1717C69.8421 11.9729 70.1706 11.8043 70.4386 11.666C70.6287 11.5623 70.9356 11.3938 71.3591 11.1604C71.7827 10.9184 72.0765 10.7584 72.2408 10.6806C72.405 10.5942 72.6297 10.4905 72.915 10.3695C73.2002 10.2398 73.4509 10.1534 73.667 10.1102C73.8917 10.0669 74.1208 10.0453 74.3542 10.0453C74.6567 10.0453 74.9031 10.1274 75.0932 10.2917C75.2834 10.4559 75.3785 10.7195 75.3785 11.0826C75.3785 11.2468 75.3828 11.3851 75.3914 11.4975C75.4087 11.6012 75.4346 11.692 75.4692 11.7698C75.5038 11.8389 75.5513 11.8908 75.6118 11.9254C75.6724 11.9599 75.7458 11.9902 75.8323 12.0161C75.9187 12.0334 76.0181 12.042 76.1305 12.042C76.2515 12.042 76.3941 12.042 76.5583 12.042C76.6794 12.042 76.7744 12.042 76.8436 12.042C77.1202 12.042 77.3233 12.0464 77.453 12.055C77.5826 12.055 77.7425 12.0637 77.9327 12.0809C78.1229 12.0896 78.2568 12.1112 78.3346 12.1458C78.4124 12.1803 78.5032 12.2279 78.6069 12.2884C78.7193 12.3489 78.7928 12.4267 78.8273 12.5218C78.8619 12.6082 78.8922 12.7206 78.9181 12.8589C78.9527 12.9885 78.97 13.1484 78.97 13.3386C78.97 13.6152 78.9527 13.9869 78.9181 14.4537C78.8835 14.9118 78.8576 15.2748 78.8403 15.5428C78.8317 15.7934 78.8014 16.0095 78.7495 16.1911C78.7063 16.3639 78.6285 16.5065 78.5162 16.6189C78.4038 16.7226 78.2957 16.8091 78.192 16.8782C78.0969 16.9387 77.937 16.982 77.7123 17.0079C77.4875 17.0338 77.2974 17.0511 77.1418 17.0598C76.9949 17.0598 76.7528 17.0598 76.4157 17.0598C76.1132 17.0598 75.8971 17.0641 75.7674 17.0727C75.6378 17.0727 75.4995 17.0857 75.3525 17.1116C75.2142 17.1289 75.1235 17.1548 75.0803 17.1894C75.0457 17.224 75.0068 17.2845 74.9636 17.3709C74.929 17.4487 74.9117 17.5395 74.9117 17.6432C74.9117 17.7469 74.9117 17.8896 74.9117 18.0711C74.9117 18.2094 74.9117 18.3217 74.9117 18.4082C74.9117 18.486 74.9117 18.62 74.9117 18.8101C74.9117 19.0003 74.8987 19.2769 74.8728 19.6399C74.8555 20.003 74.8469 20.2666 74.8469 20.4308C74.8469 20.8284 74.9549 21.1353 75.171 21.3514C75.3958 21.5675 75.6983 21.6755 76.0786 21.6755C76.3206 21.6755 76.675 21.6453 77.1418 21.5848C77.6086 21.5243 77.9327 21.494 78.1142 21.494C78.3908 21.494 78.5896 21.5934 78.7106 21.7922C78.8403 21.9824 78.9008 22.3411 78.8922 22.8684C78.8749 24.0785 78.4859 25.0552 77.7253 25.7986C76.9646 26.542 75.9014 26.9137 74.5357 26.9137Z" fill="#58248C"/>
<rect x="83.0195" width="38.401" height="32.9011" rx="6.44836" fill="#58248C"/>
<path d="M90.8381 26.3207C88.2182 26.3207 86.9082 24.9007 86.9082 22.0605C86.9082 20.7808 87.3201 19.7694 88.144 19.0264C88.9761 18.275 90.1419 17.8994 91.6414 17.8994C92.1769 17.8994 92.6836 17.9365 93.1614 18.0108C93.6475 18.0851 93.9441 18.1223 94.0512 18.1223C94.2324 18.1223 94.3601 18.1058 94.4343 18.0728C94.5084 18.0315 94.5661 17.92 94.6073 17.7384C94.6567 17.5485 94.6732 17.2471 94.6567 16.8343C94.632 15.6124 94.1665 15.0014 93.2603 15.0014C92.8071 15.0014 92.4776 15.0799 92.2716 15.2367C92.0656 15.3854 91.9091 15.6454 91.802 16.017C91.6537 16.5206 91.4354 16.8797 91.147 17.0944C90.8669 17.3091 90.4344 17.4164 89.8494 17.4164C88.0616 17.4164 87.1677 16.7476 87.1677 15.4101C87.1677 14.3203 87.7156 13.3997 88.8113 12.6484C90.1131 11.7155 91.9627 11.249 94.3601 11.249C96.1644 11.249 97.5197 11.637 98.4259 12.4131C99.3404 13.1892 99.7977 14.3162 99.7977 15.794C99.7977 16.4628 99.74 17.4164 99.6247 18.6548C99.5176 19.8933 99.464 20.5785 99.464 20.7106C99.464 21.0987 99.6247 21.2927 99.946 21.2927H100.626C100.922 21.2927 101.132 21.3959 101.256 21.6023C101.38 21.8087 101.441 22.139 101.441 22.5931C101.441 23.0306 101.375 23.4641 101.244 23.8934C101.112 24.3145 100.918 24.7108 100.663 25.0823C100.416 25.4456 100.078 25.7387 99.6494 25.9616C99.2292 26.1845 98.7555 26.296 98.2282 26.296C97.083 26.296 96.2386 25.9657 95.6948 25.3052C95.563 25.1484 95.4353 24.975 95.3117 24.7851C95.1964 24.5952 95.1057 24.4631 95.0398 24.3888C94.9739 24.3062 94.8874 24.2649 94.7803 24.2649C94.6485 24.2649 94.5373 24.3021 94.4466 24.3764C94.3643 24.4507 94.2613 24.5869 94.1377 24.7851C94.0141 24.9832 93.9111 25.1318 93.8287 25.2309C93.5486 25.6107 93.1944 25.8873 92.7659 26.0607C92.3458 26.2341 91.7031 26.3207 90.8381 26.3207ZM93.2973 22.5311C93.7422 22.5311 94.0924 22.3866 94.3478 22.0977C94.6032 21.8087 94.7309 21.3959 94.7309 20.8592C94.7309 20.4547 94.7103 20.2194 94.6691 20.1533C94.5867 20.0543 94.3395 20.0047 93.9276 20.0047C93.5486 20.0047 93.2273 20.1327 92.9637 20.3886C92.7 20.6446 92.5559 20.979 92.5311 21.3918C92.4817 21.8046 92.5105 22.0977 92.6176 22.2711C92.733 22.4444 92.9595 22.5311 93.2973 22.5311Z" fill="white"/>
<path d="M105.495 26.1845C104.959 26.1845 104.518 26.1763 104.172 26.1597C103.826 26.1432 103.493 26.102 103.171 26.0359C102.85 25.9781 102.599 25.8955 102.418 25.7882C102.236 25.6809 102.076 25.5364 101.936 25.3548C101.804 25.1731 101.709 24.9543 101.651 24.6984C101.602 24.4425 101.577 24.1287 101.577 23.7572C101.577 23.237 101.623 22.8325 101.713 22.5435C101.804 22.2463 102.01 21.9573 102.331 21.6766C102.595 21.4537 102.768 21.2019 102.85 20.9212C102.933 20.6322 102.994 20.1822 103.036 19.5713C103.052 18.9933 103.06 18.0893 103.06 16.8591C103.06 15.0014 103.052 13.7506 103.036 13.1066C103.019 12.7103 102.957 12.4544 102.85 12.3388C102.751 12.215 102.529 12.1407 102.183 12.1159C101.738 12.0994 101.4 11.9962 101.169 11.8063C100.931 11.6164 100.811 11.2861 100.811 10.8155C100.811 9.93211 101.19 9.05282 101.948 8.17766C102.352 7.69054 102.842 7.3025 103.419 7.01353C103.995 6.72456 104.621 6.58008 105.297 6.58008C106.244 6.58008 107.015 6.84015 107.608 7.36029C108.209 7.88044 108.51 8.64414 108.51 9.6514C108.51 9.92385 108.44 11.1829 108.3 13.4286C108.053 16.6898 107.962 18.9149 108.028 20.1038C108.053 20.4836 108.106 20.7726 108.189 20.9707C108.271 21.1689 108.428 21.3711 108.658 21.5775C108.947 21.8252 109.153 22.0936 109.276 22.3825C109.408 22.6715 109.474 23.076 109.474 23.5962C109.474 24.0998 109.421 24.5044 109.313 24.8099C109.215 25.1071 109.021 25.3672 108.733 25.5901C108.444 25.813 108.041 25.9657 107.521 26.0483C107.011 26.1391 106.335 26.1845 105.495 26.1845Z" fill="white"/>
<path d="M113.552 26.1845C113.017 26.1845 112.576 26.1763 112.23 26.1597C111.884 26.1432 111.55 26.102 111.229 26.0359C110.908 25.9781 110.656 25.8955 110.475 25.7882C110.294 25.6809 110.133 25.5364 109.993 25.3548C109.861 25.1731 109.767 24.9543 109.709 24.6984C109.659 24.4425 109.635 24.1287 109.635 23.7572C109.635 23.237 109.68 22.8325 109.771 22.5435C109.861 22.2463 110.067 21.9573 110.389 21.6766C110.652 21.4537 110.825 21.2019 110.908 20.9212C110.99 20.6322 111.052 20.1822 111.093 19.5713C111.109 18.9933 111.118 18.0893 111.118 16.8591C111.118 15.0014 111.109 13.7506 111.093 13.1066C111.077 12.7103 111.015 12.4544 110.908 12.3388C110.809 12.215 110.586 12.1407 110.24 12.1159C109.795 12.0994 109.458 11.9962 109.227 11.8063C108.988 11.6164 108.869 11.2861 108.869 10.8155C108.869 9.93211 109.248 9.05282 110.005 8.17766C110.409 7.69054 110.899 7.3025 111.476 7.01353C112.053 6.72456 112.679 6.58008 113.355 6.58008C114.302 6.58008 115.072 6.84015 115.665 7.36029C116.267 7.88044 116.568 8.64414 116.568 9.6514C116.568 9.92385 116.498 11.1829 116.358 13.4286C116.11 16.6898 116.02 18.9149 116.086 20.1038C116.11 20.4836 116.164 20.7726 116.246 20.9707C116.329 21.1689 116.485 21.3711 116.716 21.5775C117.004 21.8252 117.21 22.0936 117.334 22.3825C117.466 22.6715 117.532 23.076 117.532 23.5962C117.532 24.0998 117.478 24.5044 117.371 24.8099C117.272 25.1071 117.078 25.3672 116.79 25.5901C116.502 25.813 116.098 25.9657 115.579 26.0483C115.068 26.1391 114.393 26.1845 113.552 26.1845Z" fill="white"/>
</g>
<defs>
<clipPath id="clip0_1111_2149">
<rect width="120.841" height="32.9011" fill="white" transform="translate(0.57959)"/>
</clipPath>
</defs>
</svg>
