<svg width="106" height="21" viewBox="0 0 106 21" fill="none" xmlns="http://www.w3.org/2000/svg">
<path d="M2.37016 16.7616C2.06634 16.7578 1.81759 16.7521 1.6239 16.7445C1.43022 16.737 1.25742 16.7199 1.10551 16.6933C0.957397 16.6667 0.845364 16.6363 0.769409 16.6021C0.693454 16.568 0.630792 16.5167 0.581421 16.4483C0.535848 16.3762 0.507365 16.3021 0.495972 16.2262C0.484578 16.1464 0.478882 16.042 0.478882 15.9128C0.478882 15.723 0.522556 15.5767 0.609904 15.4742C0.697252 15.3717 0.841566 15.2729 1.04285 15.178C1.17577 15.1096 1.26691 15.0451 1.31628 14.9843C1.36945 14.9235 1.41313 14.8001 1.44731 14.614C1.48149 14.4279 1.49858 14.145 1.49858 13.7652V10.9568C1.49858 10.6871 1.46819 10.4973 1.40743 10.3871C1.35046 10.2732 1.21375 10.182 0.997274 10.1137C0.803589 10.0529 0.661174 9.97127 0.570028 9.86873C0.478882 9.76619 0.433309 9.5915 0.433309 9.34464C0.433309 9.0902 0.456095 8.90601 0.501668 8.79207C0.551039 8.67814 0.64978 8.59649 0.797892 8.54712C0.946004 8.49395 1.18336 8.46737 1.50997 8.46737L4.56335 8.45597C5.67609 8.45597 6.49451 8.65535 7.0186 9.05412C7.54268 9.45288 7.80663 10.0833 7.81043 10.9454C7.81043 11.8075 7.54838 12.4816 7.02429 12.9677C6.5002 13.45 5.71597 13.6855 4.67159 13.6741C4.51968 13.6779 4.38296 13.6779 4.26143 13.6741C4.1437 13.6703 4.03737 13.6722 3.94242 13.6798C3.85128 13.6836 3.77153 13.6874 3.70317 13.6912C3.6386 13.695 3.58164 13.7045 3.53227 13.7196C3.48669 13.731 3.44872 13.7443 3.41834 13.7595C3.39175 13.7709 3.36896 13.7899 3.34998 13.8165C3.33099 13.8393 3.31769 13.864 3.3101 13.8905C3.3063 13.9171 3.3025 13.9513 3.29871 13.9931C3.29491 14.0349 3.29301 14.0785 3.29301 14.1241C3.29301 14.1507 3.29301 14.1716 3.29301 14.1868C3.28541 14.5589 3.3101 14.7982 3.36707 14.9045C3.42403 15.0109 3.58923 15.102 3.86267 15.178C4.13231 15.2691 4.3127 15.3679 4.40385 15.4742C4.495 15.5805 4.54057 15.7268 4.54057 15.9128C4.54057 16.0648 4.52348 16.1863 4.4893 16.2774C4.45512 16.3686 4.39815 16.4483 4.3184 16.5167C4.23865 16.585 4.11142 16.6344 3.93673 16.6648C3.76583 16.699 3.55885 16.7237 3.3158 16.7389C3.07654 16.754 2.76133 16.7616 2.37016 16.7616ZM4.60893 12.3752C5.08365 12.3676 5.41785 12.2822 5.61153 12.1189C5.80522 11.9518 5.90396 11.6613 5.90776 11.2473C5.90776 10.803 5.76914 10.465 5.4919 10.2333C5.21847 9.99786 4.8197 9.88013 4.29561 9.88013C3.84368 9.88013 3.57404 9.89152 3.48669 9.91431C3.36896 9.94849 3.29871 10.032 3.27592 10.165C3.26832 10.2257 3.26643 10.4802 3.27022 10.9283C3.27022 10.9853 3.27022 11.0403 3.27022 11.0935C3.27022 11.1884 3.27022 11.3176 3.27022 11.4809C3.26643 11.9328 3.3101 12.1968 3.40125 12.2727C3.49619 12.3487 3.82469 12.3828 4.38676 12.3752C4.4817 12.3752 4.55576 12.3752 4.60893 12.3752ZM11.3282 16.8585C10.8003 16.8585 10.3313 16.7768 9.92113 16.6135C9.51098 16.4464 9.17678 16.2129 8.91853 15.9128C8.66028 15.6128 8.4647 15.2634 8.33178 14.8647C8.19886 14.4621 8.1324 14.0178 8.1324 13.5317C8.1324 13.0569 8.20076 12.6183 8.33748 12.2157C8.47799 11.8094 8.67927 11.4524 8.94132 11.1448C9.20716 10.8334 9.54896 10.5903 9.96671 10.4156C10.3883 10.2409 10.863 10.1555 11.3909 10.1593C11.9074 10.1631 12.3669 10.2523 12.7694 10.427C13.1758 10.5979 13.5062 10.8372 13.7607 11.1448C14.0151 11.4486 14.2088 11.8018 14.3417 12.2043C14.4746 12.6069 14.5411 13.0493 14.5411 13.5317C14.5411 14.014 14.4727 14.4564 14.336 14.859C14.1993 15.2615 13.998 15.6128 13.7322 15.9128C13.4701 16.2091 13.134 16.4407 12.7239 16.6078C12.3137 16.7749 11.8485 16.8585 11.3282 16.8585ZM11.6586 15.2463C12.0839 15.1894 12.3783 14.9976 12.5416 14.671C12.7087 14.3444 12.7448 13.9152 12.6498 13.3835C12.5245 12.7645 12.3365 12.3202 12.0858 12.0505C11.8352 11.7771 11.4972 11.6727 11.0719 11.7372C10.6579 11.7942 10.3598 12.0069 10.1775 12.3752C9.99519 12.7398 9.95911 13.2069 10.0692 13.7766C10.1756 14.3007 10.3636 14.6938 10.6332 14.9558C10.9066 15.2141 11.2484 15.3109 11.6586 15.2463ZM17.4778 16.7389C17.0714 16.7389 16.8018 16.699 16.6689 16.6192C16.536 16.5357 16.4239 16.3306 16.3328 16.004C16.2796 15.8255 16.1809 15.497 16.0366 15.0185C15.8923 14.5362 15.7669 14.1108 15.6606 13.7424C15.558 13.3741 15.4479 12.962 15.3302 12.5063C15.2542 12.1986 15.1213 11.9575 14.9314 11.7828C14.8023 11.722 14.715 11.6556 14.6694 11.5834C14.6276 11.5113 14.6067 11.384 14.6067 11.2017C14.6067 10.9663 14.6561 10.7916 14.7548 10.6777C14.8536 10.5599 15.0302 10.4764 15.2846 10.427C15.5391 10.3738 15.9207 10.3472 16.4296 10.3472C16.9803 10.3472 17.362 10.4004 17.5747 10.5068C17.7911 10.6131 17.8994 10.8087 17.8994 11.0935C17.8994 11.2454 17.8766 11.3555 17.831 11.4239C17.7892 11.4923 17.7057 11.5682 17.5803 11.6518C17.455 11.7581 17.4057 11.9214 17.4322 12.1417C17.474 12.3506 17.6487 13.0436 17.9563 14.2209C17.9639 14.2589 17.9734 14.3083 17.9848 14.3691C18 14.4298 18.0095 14.4773 18.0133 14.5115C18.0209 14.5419 18.0304 14.5798 18.0418 14.6254C18.0532 14.6672 18.0646 14.6995 18.076 14.7222C18.0873 14.745 18.1006 14.7697 18.1158 14.7963C18.131 14.8191 18.1481 14.8343 18.1671 14.8419C18.1899 14.8495 18.2127 14.8533 18.2355 14.8533C18.2734 14.8533 18.3057 14.8438 18.3323 14.8248C18.3627 14.802 18.3874 14.7659 18.4064 14.7166C18.4291 14.6634 18.4462 14.6159 18.4576 14.5741C18.469 14.5286 18.4842 14.4602 18.5032 14.3691C18.526 14.2779 18.545 14.2058 18.5602 14.1526C18.7994 13.3816 18.9627 12.793 19.0501 12.3866C19.0956 12.1854 19.1108 12.0296 19.0956 11.9195C19.0805 11.8094 19.0197 11.7125 18.9134 11.629C18.7956 11.5758 18.714 11.5151 18.6684 11.4467C18.6228 11.3745 18.6 11.2644 18.6 11.1163C18.6 10.9112 18.6323 10.7593 18.6969 10.6606C18.7614 10.558 18.902 10.4802 19.1184 10.427C19.3387 10.3738 19.671 10.3472 20.1153 10.3472C20.5293 10.3472 20.8388 10.37 21.0439 10.4156C21.249 10.4574 21.3895 10.5295 21.4654 10.6321C21.5452 10.7308 21.5851 10.8808 21.5851 11.0821C21.5851 11.2264 21.5623 11.3366 21.5167 11.4125C21.4749 11.4847 21.4009 11.5644 21.2945 11.6518C21.1464 11.7429 21.0876 11.9062 21.1179 12.1417C21.1559 12.3316 21.2072 12.5537 21.2718 12.8082C21.3401 13.0588 21.4161 13.3323 21.4996 13.6285C21.5832 13.9247 21.6382 14.1222 21.6648 14.2209C21.6762 14.2703 21.6895 14.3349 21.7047 14.4146C21.7427 14.6007 21.775 14.7222 21.8015 14.7792C21.8281 14.8324 21.8794 14.8571 21.9553 14.8533C21.9895 14.8533 22.018 14.8457 22.0408 14.8305C22.0636 14.8153 22.0826 14.7849 22.0978 14.7393C22.1168 14.6938 22.1319 14.6501 22.1433 14.6083C22.1547 14.5627 22.1718 14.4944 22.1946 14.4032C22.2174 14.3083 22.2402 14.2209 22.263 14.1412C22.5516 13.1766 22.7187 12.605 22.7643 12.4265C22.8174 12.2214 22.8345 12.0619 22.8155 11.948C22.7965 11.8341 22.732 11.7315 22.6219 11.6404C22.4889 11.5644 22.3978 11.4942 22.3484 11.4296C22.299 11.365 22.2744 11.2606 22.2744 11.1163C22.2744 10.9112 22.3066 10.7593 22.3712 10.6606C22.4396 10.558 22.5839 10.4802 22.8041 10.427C23.0244 10.3738 23.3605 10.3472 23.8124 10.3472C24.272 10.3472 24.5739 10.4023 24.7182 10.5125C24.8625 10.6188 24.9347 10.8277 24.9347 11.1391C24.9347 11.3859 24.8018 11.5701 24.5359 11.6917C24.4106 11.76 24.3175 11.8436 24.2568 11.9423C24.1998 12.0372 24.1485 12.1816 24.103 12.3752C23.989 12.7854 23.6207 13.9912 22.9978 15.9926C22.9447 16.1749 22.8972 16.3135 22.8554 16.4084C22.8174 16.5034 22.7643 16.5774 22.6959 16.6306C22.6275 16.68 22.5573 16.7104 22.4851 16.7218C22.413 16.7332 22.3028 16.7389 22.1547 16.7389H21.4996C21.1388 16.7389 20.8939 16.6971 20.7648 16.6135C20.6356 16.5262 20.5312 16.3192 20.4514 15.9926C20.3869 15.7268 20.2843 15.3489 20.1438 14.859C20.0071 14.3653 19.9274 14.0709 19.9046 13.976C19.8552 13.7709 19.8191 13.6532 19.7963 13.6228C19.7735 13.6 19.747 13.5886 19.7166 13.5886C19.69 13.5886 19.6672 13.5943 19.6482 13.6057C19.6292 13.6133 19.614 13.6304 19.6026 13.657C19.5913 13.6836 19.5818 13.7083 19.5742 13.731C19.5704 13.7538 19.5628 13.7918 19.5514 13.845C19.54 13.8943 19.5286 13.938 19.5172 13.976C19.4526 14.1773 19.3615 14.4944 19.2438 14.9273C19.1298 15.3565 19.0387 15.685 18.9703 15.9128C18.8868 16.2167 18.8184 16.4084 18.7652 16.4882C18.6551 16.6553 18.4481 16.7389 18.1443 16.7389H17.4778ZM28.1505 16.8699C27.2011 16.8699 26.4302 16.5699 25.8377 15.9698C25.2491 15.366 24.9547 14.5931 24.9547 13.6513C24.9547 13.188 25.0231 12.7493 25.1598 12.3354C25.3003 11.9214 25.4997 11.5511 25.758 11.2245C26.0162 10.8941 26.3523 10.6321 26.7663 10.4384C27.184 10.2447 27.6492 10.1479 28.1619 10.1479C29.0392 10.1479 29.7342 10.4042 30.2469 10.9169C30.7634 11.4258 31.0216 12.1227 31.0216 13.0076C31.0216 13.4025 30.9552 13.6551 30.8222 13.7652C30.6893 13.8754 30.3874 13.9304 29.9165 13.9304H27.0226C26.9353 13.9304 26.8707 13.9475 26.8289 13.9817C26.7909 14.0121 26.7738 14.069 26.7776 14.1526C26.789 14.4678 26.9675 14.7279 27.3131 14.933C27.6625 15.1343 28.0974 15.2349 28.6177 15.2349C29.2177 15.2349 29.7152 15.1115 30.1102 14.8647C30.133 14.8495 30.1709 14.8267 30.2241 14.7963C30.2773 14.7621 30.3133 14.7393 30.3323 14.7279C30.3551 14.7166 30.3836 14.7052 30.4178 14.6938C30.4558 14.6824 30.4899 14.6767 30.5203 14.6767C30.6381 14.6767 30.7121 14.7431 30.7425 14.8761C30.7767 15.009 30.7729 15.1571 30.7311 15.3204C30.6096 15.7951 30.3171 16.173 29.8538 16.454C29.3905 16.7313 28.8227 16.8699 28.1505 16.8699ZM27.4612 12.962C27.8562 12.962 28.1581 12.9582 28.367 12.9506C28.5797 12.9392 28.7468 12.9183 28.8683 12.8879C28.9898 12.8576 29.0658 12.8215 29.0962 12.7797C29.1265 12.7379 29.1417 12.6734 29.1417 12.586C29.1417 12.286 29.0354 12.0221 28.8227 11.7942C28.6101 11.5625 28.3366 11.4467 28.0024 11.4467C27.6264 11.4467 27.3226 11.5739 27.091 11.8284C26.8631 12.079 26.7587 12.3904 26.7776 12.7626C26.7814 12.8538 26.8194 12.9107 26.8916 12.9335C26.9637 12.9525 27.1536 12.962 27.4612 12.962ZM33.6507 16.7047C32.857 16.7085 32.3766 16.7009 32.2095 16.6819C31.9247 16.6439 31.7481 16.5471 31.6797 16.3914C31.6417 16.3078 31.6227 16.1958 31.6227 16.0553C31.6227 15.7211 31.7822 15.4761 32.1012 15.3204C32.2532 15.252 32.3576 15.1685 32.4146 15.0697C32.4715 14.971 32.5076 14.7925 32.5228 14.5343C32.5456 14.2304 32.557 13.5317 32.557 12.4379C32.557 12.2746 32.5228 12.1664 32.4544 12.1132C32.3899 12.0562 32.2759 12.0278 32.1126 12.0278C32.0785 12.0278 32.0234 12.0296 31.9474 12.0334C31.8715 12.0334 31.8145 12.0334 31.7765 12.0334C31.7424 12.0334 31.6949 12.0315 31.6341 12.0278C31.5772 12.0202 31.5335 12.0088 31.5031 11.9936C31.4765 11.9784 31.4461 11.9594 31.412 11.9366C31.3778 11.91 31.3531 11.8758 31.3379 11.8341C31.3265 11.7885 31.3208 11.7372 31.3208 11.6803C31.3208 11.3157 31.5373 10.972 31.9702 10.6492C32.3386 10.3795 32.7013 10.2447 33.0583 10.2447C33.3089 10.2447 33.5026 10.3036 33.6393 10.4213C33.7798 10.5352 33.8501 10.6928 33.8501 10.8941C33.8501 10.9397 33.8482 10.9986 33.8444 11.0707C33.8406 11.1429 33.8387 11.196 33.8387 11.2302C33.8425 11.2644 33.8463 11.3024 33.8501 11.3442C33.8577 11.3859 33.871 11.4163 33.89 11.4353C33.909 11.4505 33.9356 11.4581 33.9697 11.4581C33.9963 11.4581 34.021 11.4524 34.0438 11.441C34.0666 11.4258 34.0894 11.3992 34.1122 11.3612C34.1387 11.3233 34.1615 11.2853 34.1805 11.2473C34.2033 11.2093 34.2356 11.1505 34.2774 11.0707C34.3229 10.991 34.3666 10.9169 34.4084 10.8486C34.6856 10.3814 35.0996 10.1479 35.6502 10.1479C36.1136 10.1479 36.4592 10.2941 36.687 10.5865C36.9187 10.8789 37.0307 11.2891 37.0231 11.817C37.0231 12.6107 36.6851 13.0076 36.0091 13.0076C35.8268 13.0076 35.6863 12.9753 35.5876 12.9107C35.4926 12.8462 35.4224 12.7417 35.3768 12.5974C35.3464 12.4949 35.3217 12.4189 35.3027 12.3695C35.2876 12.3202 35.261 12.2651 35.223 12.2043C35.185 12.1398 35.1375 12.0942 35.0806 12.0676C35.0236 12.041 34.9552 12.0278 34.8755 12.0278C34.6666 12.0278 34.5128 12.1208 34.4141 12.3069C34.3191 12.493 34.2679 12.7189 34.2603 12.9848C34.2489 13.4595 34.2603 13.9456 34.2944 14.4431C34.3058 14.6862 34.3381 14.8514 34.3913 14.9387C34.4483 15.0261 34.5907 15.1096 34.8185 15.1894C34.9363 15.2349 35.016 15.2672 35.0578 15.2862C35.1034 15.3014 35.1641 15.328 35.2401 15.366C35.3198 15.4039 35.373 15.4381 35.3996 15.4685C35.4262 15.4989 35.4566 15.5407 35.4907 15.5938C35.5287 15.6432 35.5515 15.7002 35.5591 15.7647C35.5705 15.8255 35.5762 15.8977 35.5762 15.9812C35.5762 16.1863 35.523 16.3382 35.4167 16.4369C35.3141 16.5357 35.1299 16.6059 34.8641 16.6477C34.6021 16.6857 34.1976 16.7047 33.6507 16.7047ZM40.4839 16.8699C39.5345 16.8699 38.7636 16.5699 38.1711 15.9698C37.5825 15.366 37.2881 14.5931 37.2881 13.6513C37.2881 13.188 37.3565 12.7493 37.4932 12.3354C37.6337 11.9214 37.8331 11.5511 38.0914 11.2245C38.3496 10.8941 38.6857 10.6321 39.0997 10.4384C39.5174 10.2447 39.9826 10.1479 40.4953 10.1479C41.3726 10.1479 42.0676 10.4042 42.5803 10.9169C43.0968 11.4258 43.355 12.1227 43.355 13.0076C43.355 13.4025 43.2886 13.6551 43.1556 13.7652C43.0227 13.8754 42.7208 13.9304 42.2499 13.9304H39.356C39.2687 13.9304 39.2041 13.9475 39.1623 13.9817C39.1243 14.0121 39.1072 14.069 39.111 14.1526C39.1224 14.4678 39.3009 14.7279 39.6465 14.933C39.9959 15.1343 40.4308 15.2349 40.9511 15.2349C41.5511 15.2349 42.0486 15.1115 42.4436 14.8647C42.4664 14.8495 42.5043 14.8267 42.5575 14.7963C42.6107 14.7621 42.6467 14.7393 42.6657 14.7279C42.6885 14.7166 42.717 14.7052 42.7512 14.6938C42.7892 14.6824 42.8233 14.6767 42.8537 14.6767C42.9715 14.6767 43.0455 14.7431 43.0759 14.8761C43.1101 15.009 43.1063 15.1571 43.0645 15.3204C42.943 15.7951 42.6505 16.173 42.1872 16.454C41.7239 16.7313 41.1561 16.8699 40.4839 16.8699ZM39.7946 12.962C40.1896 12.962 40.4915 12.9582 40.7004 12.9506C40.9131 12.9392 41.0802 12.9183 41.2017 12.8879C41.3232 12.8576 41.3992 12.8215 41.4296 12.7797C41.46 12.7379 41.4751 12.6734 41.4751 12.586C41.4751 12.286 41.3688 12.0221 41.1561 11.7942C40.9435 11.5625 40.67 11.4467 40.3358 11.4467C39.9598 11.4467 39.656 11.5739 39.4244 11.8284C39.1965 12.079 39.0921 12.3904 39.111 12.7626C39.1148 12.8538 39.1528 12.9107 39.225 12.9335C39.2971 12.9525 39.487 12.962 39.7946 12.962ZM49.8578 16.7787C49.3603 16.7787 48.9862 16.6021 48.7356 16.2489C48.6748 16.1654 48.6236 16.0723 48.5818 15.9698C48.54 15.8673 48.5039 15.7951 48.4735 15.7533C48.447 15.7116 48.4033 15.6907 48.3425 15.6907C48.2818 15.6907 48.2286 15.7135 48.183 15.759C48.1412 15.8008 48.0862 15.8711 48.0178 15.9698C47.9533 16.0648 47.8944 16.1426 47.8412 16.2034C47.526 16.5452 47.0589 16.7161 46.4399 16.7161C46.0069 16.7161 45.6233 16.6363 45.2891 16.4768C44.9587 16.3135 44.6891 16.0837 44.4802 15.7875C44.2751 15.4913 44.1194 15.1438 44.0131 14.745C43.9106 14.3425 43.8593 13.8962 43.8593 13.4063C43.8593 12.4417 44.1194 11.6613 44.6397 11.065C45.16 10.4688 45.8265 10.1707 46.6392 10.1707C47.0038 10.1707 47.2981 10.2124 47.5222 10.296C47.7501 10.3795 47.9533 10.5011 48.1317 10.6606C48.2001 10.7251 48.2704 10.7973 48.3425 10.877C48.4185 10.9568 48.4735 11.0119 48.5077 11.0422C48.5419 11.0688 48.5723 11.0821 48.5989 11.0821C48.6634 11.0821 48.7071 11.0403 48.7299 10.9568C48.7527 10.8732 48.7679 10.7061 48.7755 10.4555C48.7945 9.96937 48.7755 9.66366 48.7185 9.53833C48.6653 9.40921 48.5248 9.34464 48.297 9.34464C48.2514 9.34464 48.1849 9.34654 48.0976 9.35034C48.014 9.35034 47.9533 9.35034 47.9153 9.35034C47.8773 9.35034 47.826 9.34844 47.7615 9.34464C47.7007 9.33705 47.6551 9.32566 47.6248 9.31047C47.5944 9.29527 47.5621 9.27439 47.5279 9.2478C47.4975 9.22122 47.4747 9.18514 47.4595 9.13957C47.4482 9.09399 47.4425 9.04083 47.4425 8.98006C47.4425 8.63826 47.6608 8.29647 48.0976 7.95467C48.4887 7.62807 48.916 7.46476 49.3793 7.46476C49.6983 7.46476 49.9604 7.5635 50.1654 7.76099C50.3743 7.95847 50.4788 8.27938 50.4788 8.72371C50.4788 9.32376 50.4123 10.3245 50.2794 11.7258C50.1465 13.1272 50.08 14.0519 50.08 14.5001C50.08 14.709 50.1123 14.8533 50.1768 14.933C50.2452 15.009 50.3363 15.047 50.4503 15.047C50.53 15.047 50.6155 15.0147 50.7066 14.9501C50.7978 14.8856 50.8642 14.8533 50.906 14.8533C51.0237 14.8533 51.1054 14.8931 51.151 14.9729C51.2003 15.0527 51.225 15.1723 51.225 15.3318C51.225 15.4761 51.1965 15.628 51.1396 15.7875C51.0864 15.947 51.0066 16.1027 50.9003 16.2546C50.7978 16.4065 50.6553 16.5319 50.4731 16.6306C50.2908 16.7294 50.0857 16.7787 49.8578 16.7787ZM47.2659 15.0356C48.1128 14.9444 48.4716 14.3615 48.3425 13.2867C48.2704 12.7588 48.1204 12.3487 47.8925 12.0562C47.6684 11.76 47.3437 11.6309 46.9184 11.6689C46.4854 11.7144 46.1816 11.9062 46.0069 12.2442C45.836 12.5784 45.7809 13.0228 45.8417 13.5772C45.9025 14.0899 46.0487 14.4735 46.2803 14.7279C46.512 14.9786 46.8405 15.0811 47.2659 15.0356ZM55.1103 16.7901C54.7382 16.7901 54.5521 16.6344 54.5521 16.323C54.5521 15.0659 54.6185 12.9411 54.7514 9.94849C54.7552 9.72062 54.7306 9.57821 54.6774 9.52124C54.628 9.46427 54.5046 9.43579 54.3071 9.43579C54.2843 9.43579 54.252 9.43579 54.2103 9.43579C54.1115 9.43579 54.0375 9.43579 53.9881 9.43579C53.9387 9.43199 53.878 9.4244 53.8058 9.413C53.7374 9.40161 53.6881 9.38262 53.6577 9.35604C53.6235 9.32945 53.5931 9.28958 53.5665 9.23641C53.54 9.18324 53.5267 9.11868 53.5267 9.04272C53.5267 8.70093 53.7602 8.36293 54.2274 8.02873C54.5881 7.77808 54.9527 7.65275 55.3211 7.65275C56.13 7.65275 56.5345 8.04961 56.5345 8.84334C56.5345 9.07121 56.5117 9.37313 56.4661 9.7491C56.4243 10.1213 56.3731 10.4175 56.3123 10.6378C56.2781 10.7631 56.2572 10.8637 56.2497 10.9397C56.2459 11.0157 56.2535 11.0726 56.2724 11.1106C56.2952 11.1448 56.3332 11.1619 56.3864 11.1619C56.4357 11.1619 56.4832 11.1372 56.5288 11.0878C56.5782 11.0384 56.6351 10.9663 56.6997 10.8713C56.768 10.7764 56.8269 10.7023 56.8763 10.6492C57.2561 10.2694 57.7536 10.0795 58.3688 10.0795C59.1701 10.0795 59.81 10.37 60.2886 10.9511C60.7671 11.5321 61.0063 12.3031 61.0063 13.2639C61.0063 13.9437 60.8962 14.54 60.6759 15.0527C60.4595 15.5616 60.1252 15.9641 59.6733 16.2603C59.2214 16.5566 58.6764 16.7047 58.0384 16.7047C57.4345 16.7047 56.9655 16.5699 56.6313 16.3002C56.5212 16.2167 56.4187 16.116 56.3237 15.9983C56.2326 15.8768 56.1604 15.7856 56.1072 15.7249C56.0541 15.6603 56.0028 15.6299 55.9534 15.6337C55.9268 15.6337 55.9022 15.6375 55.8794 15.6451C55.8604 15.6527 55.8433 15.666 55.8281 15.685C55.8129 15.7002 55.7996 15.7173 55.7882 15.7362C55.7768 15.7514 55.7654 15.7761 55.754 15.8103C55.7427 15.8445 55.7332 15.8749 55.7256 15.9014C55.7218 15.9242 55.7161 15.9603 55.7085 16.0097C55.7009 16.0591 55.6952 16.1008 55.6914 16.135C55.6876 16.1692 55.6819 16.2186 55.6743 16.2831C55.6667 16.3439 55.6591 16.3952 55.6515 16.4369C55.6287 16.5585 55.5737 16.6477 55.4863 16.7047C55.4028 16.7616 55.2774 16.7901 55.1103 16.7901ZM57.9928 15.2008C58.441 15.1552 58.7505 14.9691 58.9214 14.6425C59.0923 14.3121 59.1302 13.864 59.0353 13.2981C58.9517 12.774 58.7865 12.3714 58.5397 12.0904C58.2966 11.8094 57.9662 11.6954 57.5485 11.7486C57.1041 11.798 56.7946 12.005 56.6199 12.3695C56.449 12.7303 56.4168 13.1766 56.5231 13.7083C56.6028 14.2361 56.7604 14.6292 56.9959 14.8875C57.2352 15.1419 57.5675 15.2463 57.9928 15.2008ZM63.043 19.1428C62.7581 19.1428 62.4961 19.1105 62.2568 19.046C62.0176 18.9852 61.8011 18.8903 61.6074 18.7611C61.4137 18.6358 61.2618 18.463 61.1517 18.2428C61.0454 18.0263 60.9922 17.7737 60.9922 17.4851C60.9922 17.1471 61.0757 16.8756 61.2428 16.6705C61.4137 16.4692 61.6758 16.3686 62.029 16.3686C62.3822 16.3686 62.648 16.4559 62.8265 16.6306C63.0088 16.8053 63.0999 17.0522 63.0999 17.3712C63.0999 17.4054 63.098 17.4566 63.0942 17.525C63.0905 17.5933 63.0886 17.6427 63.0886 17.6731C63.0886 17.787 63.1284 17.8763 63.2082 17.9408C63.2879 18.0054 63.3962 18.0377 63.5329 18.0377C63.7304 18.0377 63.907 17.9484 64.0627 17.7699C64.2184 17.5914 64.3304 17.337 64.3988 17.0066C64.4405 16.7483 64.4121 16.5661 64.3133 16.4597C64.2184 16.3496 64.0019 16.2527 63.6639 16.1692C63.4133 16.1008 63.231 15.9907 63.117 15.8388C63.0069 15.6869 62.8816 15.4153 62.7411 15.0242C62.7107 14.9444 62.5778 14.5969 62.3423 13.9817C62.1068 13.3665 61.9321 12.8822 61.8182 12.5291C61.7347 12.2214 61.5903 11.9727 61.3853 11.7828C61.2334 11.6917 61.1346 11.6119 61.089 11.5435C61.0473 11.4714 61.0264 11.348 61.0264 11.1733C61.0264 11.0365 61.0416 10.9245 61.072 10.8372C61.1061 10.746 61.1574 10.6682 61.2258 10.6036C61.2941 10.539 61.3967 10.4916 61.5334 10.4612C61.6701 10.427 61.8296 10.4042 62.0119 10.3928C62.198 10.3776 62.4334 10.37 62.7183 10.37C63.4209 10.37 63.888 10.4194 64.1196 10.5181C64.3513 10.6169 64.4671 10.8201 64.4671 11.1277C64.4671 11.2644 64.4405 11.3688 64.3874 11.441C64.3342 11.5094 64.2355 11.5796 64.0912 11.6518C63.9317 11.7467 63.8709 11.9157 63.9089 12.1588C64.0912 12.8462 64.3 13.5563 64.5355 14.2893C64.5925 14.5324 64.6418 14.6957 64.6836 14.7792C64.7254 14.8628 64.7899 14.9026 64.8773 14.8988C64.9267 14.8988 64.9684 14.8912 65.0026 14.8761C65.0368 14.8571 65.0691 14.821 65.0995 14.7678C65.1298 14.7147 65.1526 14.6691 65.1678 14.6311C65.183 14.5893 65.2058 14.5153 65.2362 14.4089C65.2704 14.2988 65.2988 14.2134 65.3216 14.1526L65.9255 12.4379C65.9786 12.2214 65.99 12.0581 65.9596 11.948C65.9331 11.8341 65.8514 11.7315 65.7147 11.6404C65.616 11.5834 65.5438 11.5378 65.4982 11.5037C65.4526 11.4695 65.409 11.4163 65.3672 11.3442C65.3254 11.272 65.3045 11.1847 65.3045 11.0821C65.3045 10.8884 65.3444 10.7441 65.4242 10.6492C65.5039 10.5542 65.6501 10.4859 65.8628 10.4441C66.0793 10.4023 66.4078 10.3814 66.8483 10.3814C67.1825 10.3814 67.4389 10.4137 67.6174 10.4783C67.7997 10.539 67.9174 10.6207 67.9706 10.7232C68.0237 10.822 68.0503 10.9606 68.0503 11.1391C68.0503 11.1733 68.0465 11.2074 68.0389 11.2416C68.0313 11.2758 68.0237 11.3062 68.0161 11.3328C68.0123 11.3555 68.0009 11.3821 67.9819 11.4125C67.963 11.4429 67.9497 11.4657 67.9421 11.4809C67.9345 11.4923 67.9155 11.5132 67.8851 11.5435C67.8585 11.5739 67.8414 11.5929 67.8338 11.6005C67.8262 11.6043 67.8054 11.6233 67.7712 11.6575L67.7199 11.703C67.6098 11.7714 67.5338 11.836 67.492 11.8967C67.4503 11.9575 67.4066 12.0524 67.361 12.1816C67.2927 12.3373 67.1654 12.6791 66.9793 13.2069C66.797 13.731 66.592 14.3254 66.3641 14.99C66.1362 15.6546 65.971 16.1293 65.8685 16.4141C65.7242 16.8205 65.5913 17.1585 65.4697 17.4281C65.3482 17.6978 65.2077 17.9503 65.0482 18.1858C64.8925 18.4213 64.7216 18.6035 64.5355 18.7327C64.3532 18.8618 64.1386 18.9624 63.8918 19.0346C63.6487 19.1067 63.3658 19.1428 63.043 19.1428Z" fill="#19002B"/>
<g clip-path="url(#clip0_2085_99098)">
<path d="M72.7758 18.9364C72.5676 18.934 72.395 18.9291 72.2578 18.9217C72.1231 18.9144 72.0043 18.8972 71.9015 18.8703C71.801 18.8458 71.7239 18.8176 71.67 18.7858C71.6161 18.7515 71.5733 18.7025 71.5414 18.6388C71.5096 18.5727 71.4888 18.5053 71.479 18.4368C71.4716 18.3657 71.4679 18.2715 71.4679 18.1539C71.4679 17.9775 71.4863 17.8441 71.523 17.7534C71.5598 17.6628 71.632 17.5808 71.7398 17.5073C71.8525 17.4338 71.9272 17.3591 71.9639 17.2832C72.0031 17.2048 72.0227 17.0787 72.0227 16.9048V15.5933C72.0227 15.4439 72.0055 15.3263 71.9713 15.2406C71.937 15.1549 71.8696 15.0826 71.7692 15.0238C71.7006 14.9822 71.6467 14.9418 71.6075 14.9026C71.5684 14.8609 71.5328 14.7936 71.501 14.7005C71.4692 14.605 71.4532 14.4862 71.4532 14.3442C71.4532 14.2242 71.4569 14.1274 71.4643 14.0539C71.4716 13.978 71.4875 13.9082 71.512 13.8445C71.539 13.7784 71.572 13.7294 71.6112 13.6976C71.6504 13.6633 71.7067 13.6351 71.7802 13.6131C71.8561 13.5886 71.9419 13.5727 72.0374 13.5653C72.1329 13.558 72.2541 13.5543 72.4011 13.5543C72.4133 13.5543 72.6558 13.5531 73.1285 13.5506C73.6036 13.5457 73.9478 13.5445 74.1608 13.547C74.9127 13.547 75.4565 13.6817 75.792 13.9511C76.13 14.2205 76.2965 14.6479 76.2916 15.2332C76.2916 15.8088 76.1202 16.2545 75.7773 16.5705C75.4344 16.8864 74.9078 17.0395 74.1976 17.0297C73.9992 17.0273 73.8571 17.0322 73.7714 17.0444C73.6881 17.0542 73.6343 17.0726 73.6098 17.0995C73.5853 17.1265 73.573 17.1742 73.573 17.2428C73.573 17.3187 73.5926 17.3763 73.6318 17.4155C73.6734 17.4546 73.7726 17.5073 73.9294 17.5734C74.0788 17.6445 74.1768 17.7265 74.2233 17.8196C74.2723 17.9102 74.2968 18.0339 74.2968 18.1906C74.2968 18.3204 74.2857 18.4245 74.2637 18.5029C74.2441 18.5788 74.2061 18.6486 74.1498 18.7123C74.0959 18.7735 74.0102 18.8188 73.8926 18.8482C73.7751 18.8776 73.6294 18.8997 73.4555 18.9144C73.2816 18.9291 73.055 18.9364 72.7758 18.9364ZM74.1608 15.9423C74.3568 15.9423 74.4866 15.9055 74.5503 15.8321C74.6139 15.7586 74.6397 15.6288 74.6274 15.4426C74.6127 15.2271 74.5429 15.0581 74.418 14.9356C74.2955 14.8107 74.1192 14.752 73.889 14.7593C73.8277 14.7618 73.78 14.7654 73.7457 14.7703C73.7114 14.7728 73.6808 14.7813 73.6539 14.796C73.6269 14.8107 73.6085 14.8242 73.5987 14.8365C73.5889 14.8487 73.5816 14.8744 73.5767 14.9136C73.5718 14.9528 73.5694 14.9883 73.5694 15.0201C73.5718 15.0495 73.5743 15.1022 73.5767 15.1781C73.5792 15.254 73.5804 15.3226 73.5804 15.3838C73.5804 15.3887 73.5804 15.3949 73.5804 15.4022C73.5804 15.6618 73.6061 15.8186 73.6575 15.8725C73.7114 15.9263 73.8792 15.9496 74.1608 15.9423Z" fill="#4B0082"/>
<path d="M78.0036 18.896C77.3938 18.896 77.008 18.8654 76.8464 18.8042C76.6847 18.7405 76.6039 18.558 76.6039 18.2568C76.6039 18.1074 76.6211 17.9837 76.6553 17.8857C76.6896 17.7877 76.7558 17.7057 76.8537 17.6396C76.937 17.5857 76.9982 17.5293 77.0374 17.4706C77.0766 17.4093 77.1011 17.3285 77.1109 17.2281C77.1207 17.0983 77.1256 16.7995 77.1256 16.3317C77.1256 16.2166 77.1035 16.1419 77.0595 16.1076C77.0154 16.0708 76.9346 16.05 76.817 16.0451C76.6749 16.0378 76.5672 16.0072 76.4937 15.9533C76.4227 15.8994 76.3872 15.8051 76.3872 15.6704C76.3872 15.3569 76.5206 15.0887 76.7876 14.8658C77.0423 14.6601 77.3227 14.5572 77.6289 14.5572C77.8175 14.5572 77.9657 14.6038 78.0734 14.6969C78.1836 14.7875 78.2412 14.9087 78.2461 15.0606C78.2461 15.0704 78.2461 15.085 78.2461 15.1046C78.2461 15.1242 78.2461 15.1389 78.2461 15.1487C78.2461 15.1561 78.2461 15.1671 78.2461 15.1818C78.2461 15.1965 78.2461 15.2075 78.2461 15.2149C78.2485 15.2198 78.251 15.2283 78.2534 15.2406C78.2559 15.2504 78.2583 15.2577 78.2608 15.2626C78.2657 15.2651 78.2706 15.27 78.2755 15.2773C78.2804 15.2847 78.2865 15.2896 78.2939 15.292C78.3012 15.292 78.3098 15.2932 78.3196 15.2957C78.3294 15.2981 78.3404 15.2994 78.3526 15.2994C78.3624 15.2994 78.371 15.2981 78.3784 15.2957C78.3881 15.2932 78.3979 15.2896 78.4077 15.2847C78.4175 15.2773 78.4261 15.2712 78.4335 15.2663C78.4408 15.2589 78.4482 15.2491 78.4555 15.2369C78.4653 15.2247 78.4739 15.2136 78.4812 15.2038C78.4886 15.194 78.4971 15.1793 78.5069 15.1597C78.5192 15.1402 78.529 15.123 78.5363 15.1083C78.5461 15.0936 78.5584 15.0728 78.5731 15.0459C78.5878 15.0189 78.6012 14.9957 78.6135 14.9761C78.7898 14.6699 79.0605 14.5168 79.4254 14.5168C79.7511 14.5168 79.9924 14.6258 80.1491 14.8438C80.3059 15.0618 80.3818 15.3692 80.3769 15.7659C80.372 16.0917 80.3083 16.3317 80.1859 16.486C80.0634 16.6378 79.8626 16.7138 79.5834 16.7138C79.4487 16.7138 79.3397 16.6954 79.2564 16.6587C79.1756 16.6195 79.107 16.5558 79.0507 16.4676C79.0237 16.4235 78.9931 16.3586 78.9588 16.2729C78.9245 16.1872 78.8915 16.1272 78.8596 16.0929C78.8278 16.0562 78.7837 16.0378 78.7274 16.0378C78.6833 16.0378 78.6478 16.0451 78.6208 16.0598C78.5939 16.0745 78.5743 16.1015 78.562 16.1407C78.5498 16.1774 78.5424 16.208 78.54 16.2325C78.5375 16.257 78.5351 16.2998 78.5327 16.3611C78.5278 16.557 78.5375 16.8228 78.562 17.1583C78.5669 17.2538 78.589 17.331 78.6282 17.3897C78.6674 17.4461 78.7506 17.5049 78.878 17.5661C79.0519 17.6543 79.1694 17.7424 79.2307 17.8306C79.2919 17.9163 79.3225 18.0559 79.3225 18.2494C79.3225 18.3547 79.3115 18.4417 79.2895 18.5102C79.2699 18.5764 79.2331 18.6364 79.1792 18.6903C79.1254 18.7441 79.047 18.7858 78.9441 18.8152C78.8413 18.8421 78.7151 18.8617 78.5657 18.874C78.4163 18.8886 78.229 18.896 78.0036 18.896Z" fill="#4B0082"/>
<path d="M82.5885 18.9878C81.8758 18.9878 81.3443 18.7919 80.9941 18.4C80.6439 18.0082 80.4687 17.4669 80.4687 16.7762C80.4687 16.5117 80.4957 16.2656 80.5496 16.0378C80.6034 15.81 80.6867 15.6018 80.7994 15.4132C80.9145 15.2222 81.0566 15.0606 81.2255 14.9283C81.3945 14.796 81.5978 14.6944 81.8354 14.6234C82.0754 14.5499 82.3412 14.5144 82.6326 14.5168C82.9853 14.5193 83.2963 14.5768 83.5658 14.6895C83.8352 14.8022 84.0544 14.9589 84.2234 15.1597C84.3924 15.3606 84.5197 15.5969 84.6054 15.8688C84.6912 16.1407 84.734 16.4431 84.734 16.7762C84.734 17.462 84.554 18.002 84.194 18.3964C83.8339 18.7907 83.2988 18.9878 82.5885 18.9878ZM82.8457 17.6322C83.2278 17.5465 83.3331 17.2158 83.1616 16.6403C83.0563 16.3047 82.9449 16.0757 82.8273 15.9533C82.7122 15.8284 82.5604 15.7916 82.3718 15.8431C82.0117 15.9361 81.9089 16.3023 82.0632 16.9415C82.1366 17.2281 82.2371 17.4265 82.3644 17.5367C82.4942 17.6469 82.6547 17.6787 82.8457 17.6322Z" fill="#4B0082"/>
<path d="M86.3358 18.896C86.0835 18.896 85.8766 18.8874 85.7149 18.8703C85.5533 18.8531 85.421 18.8286 85.3182 18.7968C85.2153 18.765 85.1381 18.716 85.0867 18.6499C85.0377 18.5837 85.0047 18.5127 84.9875 18.4368C84.9728 18.3608 84.9655 18.258 84.9655 18.1282C84.9655 17.9935 84.9851 17.8857 85.0243 17.8049C85.0634 17.7241 85.132 17.6396 85.23 17.5514C85.35 17.4461 85.4222 17.3457 85.4467 17.2501C85.4712 17.1522 85.4835 16.9771 85.4835 16.7248C85.4835 16.6856 85.4835 16.655 85.4835 16.6329C85.4835 16.5791 85.4835 16.5203 85.4835 16.4566C85.4859 16.3929 85.4871 16.3452 85.4871 16.3133C85.4896 16.279 85.4896 16.2423 85.4871 16.2031C85.4871 16.1639 85.4835 16.1358 85.4761 16.1186C85.4712 16.1015 85.4639 16.0843 85.4541 16.0672C85.4443 16.0476 85.4296 16.0353 85.41 16.0304C85.3904 16.0231 85.3671 16.0182 85.3402 16.0157C85.3133 16.0108 85.279 16.0084 85.2373 16.0084C85.1737 16.0108 85.1198 16.0047 85.0757 15.99C85.034 15.9753 85.001 15.9582 84.9765 15.9386C84.952 15.919 84.9312 15.8847 84.914 15.8357C84.8993 15.7843 84.8883 15.7414 84.881 15.7071C84.8761 15.6704 84.8687 15.6104 84.8589 15.5271C84.8369 15.363 84.843 15.2344 84.8773 15.1414C84.9116 15.0459 84.9936 14.9381 85.1234 14.8181C85.2288 14.7275 85.2814 14.6148 85.2814 14.4801C85.2814 14.2964 85.3194 14.1213 85.3953 13.9547C85.4712 13.7858 85.5778 13.6363 85.7149 13.5065C85.8545 13.3743 86.0321 13.269 86.2476 13.1906C86.4632 13.1122 86.7007 13.073 86.9603 13.073C87.8861 13.073 88.349 13.362 88.349 13.94C88.349 14.1727 88.289 14.3491 88.169 14.4691C88.049 14.5866 87.8788 14.6454 87.6584 14.6454C87.5555 14.6454 87.4759 14.643 87.4196 14.6381C87.3657 14.6332 87.3155 14.6258 87.2689 14.616C87.2249 14.6062 87.1893 14.5854 87.1624 14.5536C87.1379 14.5217 87.1159 14.4887 87.0963 14.4544C87.0767 14.4176 87.051 14.3613 87.0191 14.2854C86.9799 14.2021 86.9371 14.1421 86.8905 14.1054C86.8465 14.0686 86.7889 14.0539 86.7179 14.0613C86.6958 14.0637 86.675 14.0674 86.6554 14.0723C86.6383 14.0772 86.6224 14.0858 86.6077 14.098C86.5954 14.1103 86.5844 14.1213 86.5746 14.1311C86.5672 14.1384 86.5599 14.1519 86.5525 14.1715C86.5476 14.1911 86.5428 14.2058 86.5379 14.2156C86.5354 14.2254 86.533 14.245 86.5305 14.2744C86.5305 14.3013 86.5305 14.3209 86.5305 14.3331C86.5305 14.3429 86.5305 14.365 86.5305 14.3993C86.5305 14.4336 86.5305 14.4556 86.5305 14.4654C86.5305 14.5389 86.5317 14.5977 86.5342 14.6417C86.5366 14.6858 86.5464 14.725 86.5636 14.7593C86.5807 14.7936 86.5966 14.8181 86.6113 14.8328C86.6285 14.8475 86.6603 14.8597 86.7068 14.8695C86.7558 14.8793 86.8011 14.8854 86.8428 14.8879C86.8844 14.8879 86.9505 14.8879 87.0412 14.8879C87.3498 14.8879 87.5408 14.8989 87.6143 14.921C87.7196 14.9503 87.7833 15.0226 87.8053 15.1377C87.82 15.2161 87.8212 15.3361 87.809 15.4977C87.8016 15.5859 87.7967 15.6508 87.7943 15.6924C87.7918 15.7341 87.7845 15.7818 87.7722 15.8357C87.7625 15.8872 87.7551 15.9227 87.7502 15.9423C87.7478 15.9594 87.7343 15.9815 87.7098 16.0084C87.6853 16.0329 87.6657 16.0476 87.651 16.0525C87.6388 16.0574 87.6094 16.0635 87.5628 16.0708C87.5188 16.0782 87.4808 16.0819 87.449 16.0819C87.4196 16.0819 87.3681 16.0819 87.2947 16.0819C87.2751 16.0819 87.2604 16.0819 87.2506 16.0819C87.1942 16.0819 87.1477 16.0892 87.111 16.1039C87.0767 16.1162 87.0497 16.1296 87.0301 16.1443C87.013 16.159 87.0008 16.1896 86.9934 16.2362C86.9861 16.2803 86.9824 16.317 86.9824 16.3464C86.9824 16.3758 86.9836 16.4297 86.9861 16.508C86.9885 16.584 86.9897 16.6452 86.9897 16.6917C86.9897 16.7162 86.9897 16.7493 86.9897 16.7909C86.9873 17.026 87.0056 17.1901 87.0448 17.2832C87.084 17.3738 87.193 17.4583 87.3718 17.5367C87.5139 17.6004 87.6106 17.6714 87.662 17.7498C87.7159 17.8281 87.7429 17.9543 87.7429 18.1282C87.7429 18.2531 87.7343 18.3535 87.7171 18.4294C87.7 18.5029 87.6657 18.5739 87.6143 18.6425C87.5628 18.7086 87.4845 18.7588 87.3792 18.7931C87.2738 18.825 87.1367 18.8495 86.9677 18.8666C86.8011 18.8862 86.5905 18.896 86.3358 18.896Z" fill="#4B0082"/>
<path d="M89.2785 14.4434C88.9332 14.4434 88.6674 14.3821 88.4813 14.2597C88.2952 14.1372 88.2021 13.9658 88.2021 13.7453C88.2021 13.5102 88.289 13.3253 88.4629 13.1906C88.6393 13.0534 88.8977 12.9849 89.2381 12.9849C89.5834 12.9849 89.8418 13.0547 90.0133 13.1943C90.1847 13.3314 90.2704 13.5176 90.2704 13.7527C90.2704 14.2131 89.9398 14.4434 89.2785 14.4434ZM89.2087 18.896C88.9785 18.896 88.8144 18.8935 88.7164 18.8886C88.6209 18.8862 88.5119 18.874 88.3894 18.8519C88.267 18.8323 88.1849 18.798 88.1433 18.749C88.1017 18.7001 88.0649 18.6339 88.0331 18.5507C88.0037 18.4674 87.989 18.3572 87.989 18.22C87.989 17.9629 88.0723 17.7669 88.2388 17.6322C88.3221 17.5587 88.3821 17.4853 88.4188 17.4118C88.4556 17.3383 88.4813 17.222 88.496 17.0628C88.5009 17.0015 88.5033 16.7407 88.5033 16.2803C88.5033 16.1725 88.4886 16.1015 88.4592 16.0672C88.4299 16.0304 88.3711 16.0084 88.2829 16.001C88.1678 15.9961 88.0833 15.9668 88.0294 15.9129C87.978 15.859 87.9523 15.7708 87.9523 15.6484C87.9523 15.5259 87.9878 15.3998 88.0588 15.27C88.1298 15.1377 88.2229 15.025 88.338 14.932C88.5927 14.7311 88.9026 14.6307 89.2675 14.6307C89.5785 14.6307 89.8039 14.6907 89.9435 14.8107C90.0855 14.9283 90.1565 15.1071 90.1565 15.3471C90.1565 15.4941 90.1259 15.701 90.0647 15.968C90.0035 16.2349 89.9716 16.4517 89.9692 16.6182C89.9692 16.8852 89.9741 17.0811 89.9839 17.2061C89.9912 17.3065 90.0059 17.3848 90.028 17.4412C90.0525 17.4975 90.0929 17.5538 90.1492 17.6102C90.2251 17.6861 90.2802 17.7669 90.3145 17.8526C90.3513 17.9384 90.3696 18.0584 90.3696 18.2127C90.3696 18.4013 90.339 18.5421 90.2778 18.6352C90.219 18.7282 90.1076 18.7956 89.9435 18.8372C89.7818 18.8764 89.5369 18.896 89.2087 18.896Z" fill="#4B0082"/>
<path d="M92.4086 18.9511C91.9628 18.9511 91.5991 18.825 91.3175 18.5727C91.0358 18.3204 90.895 17.98 90.895 17.5514C90.895 17.4142 90.9084 17.2146 90.9354 16.9526C90.9648 16.6905 90.9795 16.4811 90.9795 16.3243C90.9795 16.2998 90.9782 16.2803 90.9758 16.2656C90.9758 16.2484 90.9746 16.2325 90.9721 16.2178C90.9721 16.2031 90.9685 16.1909 90.9611 16.1811C90.9562 16.1713 90.9525 16.1627 90.9501 16.1553C90.9476 16.148 90.9391 16.1431 90.9244 16.1407C90.9121 16.1358 90.9035 16.1321 90.8986 16.1296C90.8938 16.1247 90.8803 16.1223 90.8582 16.1223C90.8362 16.1198 90.8203 16.1186 90.8105 16.1186C90.8031 16.1186 90.7835 16.1186 90.7517 16.1186C90.7199 16.1162 90.6954 16.1149 90.6782 16.1149C90.6243 16.1125 90.579 16.1002 90.5423 16.0782C90.5056 16.0562 90.4774 16.0317 90.4578 16.0047C90.4406 15.9778 90.4272 15.9349 90.4174 15.8761C90.4076 15.8174 90.4015 15.7684 90.399 15.7292C90.399 15.6875 90.399 15.6226 90.399 15.5345C90.399 15.4488 90.4002 15.3802 90.4027 15.3287C90.4051 15.2749 90.4174 15.2234 90.4394 15.1744C90.4615 15.1255 90.4798 15.0899 90.4945 15.0679C90.5092 15.0434 90.546 15.0116 90.6047 14.9724C90.6635 14.9307 90.7113 14.9014 90.748 14.8842C90.7872 14.8646 90.8607 14.8279 90.9685 14.774C91.0787 14.7177 91.1717 14.6699 91.2477 14.6307C91.3015 14.6013 91.3885 14.5536 91.5085 14.4874C91.6285 14.4189 91.7118 14.3736 91.7583 14.3515C91.8049 14.327 91.8685 14.2976 91.9494 14.2633C92.0302 14.2266 92.1012 14.2021 92.1624 14.1899C92.2261 14.1776 92.291 14.1715 92.3571 14.1715C92.4429 14.1715 92.5127 14.1948 92.5666 14.2413C92.6204 14.2878 92.6474 14.3625 92.6474 14.4654C92.6474 14.5119 92.6486 14.5511 92.651 14.583C92.6559 14.6124 92.6633 14.6381 92.6731 14.6601C92.6829 14.6797 92.6964 14.6944 92.7135 14.7042C92.7306 14.714 92.7515 14.7226 92.776 14.7299C92.8004 14.7348 92.8286 14.7373 92.8605 14.7373C92.8947 14.7373 92.9352 14.7373 92.9817 14.7373C93.016 14.7373 93.0429 14.7373 93.0625 14.7373C93.1409 14.7373 93.1984 14.7385 93.2352 14.7409C93.2719 14.7409 93.3172 14.7434 93.3711 14.7483C93.425 14.7507 93.463 14.7569 93.485 14.7667C93.507 14.7764 93.5328 14.7899 93.5622 14.8071C93.594 14.8242 93.6148 14.8463 93.6246 14.8732C93.6344 14.8977 93.643 14.9295 93.6503 14.9687C93.6601 15.0054 93.665 15.0508 93.665 15.1046C93.665 15.183 93.6601 15.2883 93.6503 15.4206C93.6405 15.5504 93.6332 15.6533 93.6283 15.7292C93.6258 15.8002 93.6173 15.8614 93.6026 15.9129C93.5903 15.9619 93.5683 16.0023 93.5364 16.0341C93.5046 16.0635 93.474 16.088 93.4446 16.1076C93.4176 16.1247 93.3723 16.137 93.3087 16.1443C93.245 16.1517 93.1911 16.1566 93.147 16.159C93.1054 16.159 93.0368 16.159 92.9413 16.159C92.8556 16.159 92.7943 16.1602 92.7576 16.1627C92.7209 16.1627 92.6817 16.1664 92.64 16.1737C92.6008 16.1786 92.5751 16.186 92.5629 16.1958C92.5531 16.2056 92.5421 16.2227 92.5298 16.2472C92.52 16.2692 92.5151 16.295 92.5151 16.3243C92.5151 16.3537 92.5151 16.3941 92.5151 16.4456C92.5151 16.4848 92.5151 16.5166 92.5151 16.5411C92.5151 16.5631 92.5151 16.6011 92.5151 16.655C92.5151 16.7089 92.5114 16.7872 92.5041 16.8901C92.4992 16.993 92.4967 17.0677 92.4967 17.1142C92.4967 17.2269 92.5274 17.3138 92.5886 17.375C92.6523 17.4363 92.738 17.4669 92.8458 17.4669C92.9143 17.4669 93.0148 17.4583 93.147 17.4412C93.2793 17.424 93.3711 17.4155 93.4225 17.4155C93.5009 17.4155 93.5573 17.4436 93.5915 17.5C93.6283 17.5538 93.6454 17.6555 93.643 17.8049C93.6381 18.1478 93.5279 18.4245 93.3123 18.6352C93.0968 18.8458 92.7956 18.9511 92.4086 18.9511Z" fill="#4B0082"/>
<rect x="94.8124" y="11.3252" width="10.8809" height="9.32246" rx="1.82713" fill="#FCB706"/>
<path d="M97.0278 18.7832C96.2854 18.7832 95.9142 18.3808 95.9142 17.5761C95.9142 17.2134 96.031 16.9269 96.2644 16.7163C96.5002 16.5034 96.8305 16.397 97.2554 16.397C97.4071 16.397 97.5507 16.4075 97.6861 16.4286C97.8238 16.4496 97.9078 16.4602 97.9382 16.4602C97.9896 16.4602 98.0257 16.4555 98.0467 16.4461C98.0678 16.4344 98.0841 16.4028 98.0958 16.3514C98.1098 16.2976 98.1144 16.2122 98.1098 16.0952C98.1028 15.749 97.9709 15.5759 97.7141 15.5759C97.5857 15.5759 97.4923 15.5981 97.434 15.6425C97.3756 15.6847 97.3312 15.7583 97.3009 15.8636C97.2589 16.0063 97.197 16.1081 97.1153 16.1689C97.0359 16.2297 96.9134 16.2601 96.7476 16.2601C96.2411 16.2601 95.9878 16.0707 95.9878 15.6917C95.9878 15.3829 96.143 15.122 96.4535 14.9091C96.8223 14.6448 97.3464 14.5126 98.0257 14.5126C98.537 14.5126 98.921 14.6226 99.1778 14.8425C99.4369 15.0624 99.5665 15.3817 99.5665 15.8005C99.5665 15.9899 99.5501 16.2601 99.5174 16.6111C99.4871 16.962 99.4719 17.1561 99.4719 17.1936C99.4719 17.3035 99.5174 17.3585 99.6085 17.3585H99.8011C99.8851 17.3585 99.9446 17.3877 99.9797 17.4462C100.015 17.5047 100.032 17.5983 100.032 17.7269C100.032 17.8509 100.014 17.9737 99.9762 18.0954C99.9388 18.2147 99.8839 18.327 99.8116 18.4323C99.7415 18.5352 99.6458 18.6182 99.5244 18.6814C99.4054 18.7446 99.2712 18.7762 99.1218 18.7762C98.7973 18.7762 98.558 18.6826 98.4039 18.4954C98.3666 18.451 98.3304 18.4019 98.2954 18.348C98.2627 18.2942 98.237 18.2568 98.2183 18.2358C98.1997 18.2124 98.1751 18.2007 98.1448 18.2007C98.1074 18.2007 98.0759 18.2112 98.0502 18.2322C98.0269 18.2533 97.9977 18.2919 97.9627 18.348C97.9277 18.4042 97.8985 18.4463 97.8752 18.4744C97.7958 18.582 97.6954 18.6604 97.574 18.7095C97.455 18.7586 97.2729 18.7832 97.0278 18.7832ZM97.7246 17.7094C97.8507 17.7094 97.9499 17.6685 98.0222 17.5866C98.0946 17.5047 98.1308 17.3877 98.1308 17.2357C98.1308 17.121 98.1249 17.0544 98.1133 17.0357C98.0899 17.0076 98.0199 16.9935 97.9032 16.9935C97.7958 16.9935 97.7048 17.0298 97.6301 17.1023C97.5553 17.1748 97.5145 17.2696 97.5075 17.3866C97.4935 17.5035 97.5017 17.5866 97.532 17.6357C97.5647 17.6848 97.6289 17.7094 97.7246 17.7094Z" fill="white"/>
<path d="M101.181 18.7446C101.029 18.7446 100.904 18.7422 100.806 18.7376C100.708 18.7329 100.613 18.7212 100.522 18.7025C100.431 18.6861 100.36 18.6627 100.309 18.6323C100.257 18.6019 100.212 18.5609 100.172 18.5095C100.135 18.458 100.108 18.396 100.092 18.3235C100.078 18.251 100.071 18.1621 100.071 18.0568C100.071 17.9094 100.084 17.7948 100.109 17.7129C100.135 17.6287 100.193 17.5468 100.284 17.4673C100.359 17.4041 100.408 17.3328 100.431 17.2532C100.455 17.1713 100.472 17.0438 100.484 16.8707C100.489 16.707 100.491 16.4508 100.491 16.1022C100.491 15.5759 100.489 15.2215 100.484 15.039C100.479 14.9267 100.462 14.8542 100.431 14.8214C100.403 14.7863 100.34 14.7653 100.242 14.7583C100.116 14.7536 100.021 14.7243 99.9551 14.6705C99.8874 14.6167 99.8536 14.5231 99.8536 14.3898C99.8536 14.1395 99.961 13.8903 100.176 13.6424C100.29 13.5043 100.429 13.3944 100.592 13.3125C100.756 13.2306 100.933 13.1897 101.125 13.1897C101.393 13.1897 101.611 13.2634 101.779 13.4108C101.95 13.5582 102.035 13.7745 102.035 14.0599C102.035 14.1371 102.015 14.4939 101.976 15.1302C101.906 16.0543 101.88 16.6847 101.899 17.0216C101.906 17.1292 101.921 17.2111 101.944 17.2673C101.967 17.3234 102.012 17.3807 102.077 17.4392C102.159 17.5094 102.217 17.5854 102.252 17.6673C102.29 17.7492 102.308 17.8638 102.308 18.0112C102.308 18.1539 102.293 18.2685 102.263 18.3551C102.235 18.4393 102.18 18.513 102.098 18.5761C102.016 18.6393 101.902 18.6826 101.755 18.706C101.61 18.7317 101.419 18.7446 101.181 18.7446Z" fill="white"/>
<path d="M103.464 18.7446C103.312 18.7446 103.187 18.7422 103.089 18.7376C102.991 18.7329 102.897 18.7212 102.805 18.7025C102.714 18.6861 102.643 18.6627 102.592 18.6323C102.541 18.6019 102.495 18.5609 102.455 18.5095C102.418 18.458 102.391 18.396 102.375 18.3235C102.361 18.251 102.354 18.1621 102.354 18.0568C102.354 17.9094 102.367 17.7948 102.392 17.7129C102.418 17.6287 102.476 17.5468 102.567 17.4673C102.642 17.4041 102.691 17.3328 102.714 17.2532C102.738 17.1713 102.755 17.0438 102.767 16.8707C102.772 16.707 102.774 16.4508 102.774 16.1022C102.774 15.5759 102.772 15.2215 102.767 15.039C102.762 14.9267 102.745 14.8542 102.714 14.8214C102.686 14.7863 102.623 14.7653 102.525 14.7583C102.399 14.7536 102.304 14.7243 102.238 14.6705C102.171 14.6167 102.137 14.5231 102.137 14.3898C102.137 14.1395 102.244 13.8903 102.459 13.6424C102.573 13.5043 102.712 13.3944 102.876 13.3125C103.039 13.2306 103.216 13.1897 103.408 13.1897C103.676 13.1897 103.894 13.2634 104.063 13.4108C104.233 13.5582 104.318 13.7745 104.318 14.0599C104.318 14.1371 104.298 14.4939 104.259 15.1302C104.189 16.0543 104.163 16.6847 104.182 17.0216C104.189 17.1292 104.204 17.2111 104.227 17.2673C104.25 17.3234 104.295 17.3807 104.36 17.4392C104.442 17.5094 104.5 17.5854 104.535 17.6673C104.573 17.7492 104.591 17.8638 104.591 18.0112C104.591 18.1539 104.576 18.2685 104.546 18.3551C104.518 18.4393 104.463 18.513 104.381 18.5761C104.3 18.6393 104.185 18.6826 104.038 18.706C103.893 18.7317 103.702 18.7446 103.464 18.7446Z" fill="white"/>
</g>
<defs>
<clipPath id="clip0_2085_99098">
<rect width="34.24" height="9.32246" fill="white" transform="translate(71.4534 11.3252)"/>
</clipPath>
</defs>
</svg>
