<svg width="74" height="21" viewBox="0 0 74 21" fill="none" xmlns="http://www.w3.org/2000/svg">
<g clip-path="url(#clip0_2426_34575)">
<path d="M2.83738 16.8287C2.39075 16.8235 2.02032 16.813 1.72607 16.7972C1.43708 16.7814 1.18224 16.7447 0.961555 16.6869C0.746125 16.6343 0.580611 16.5739 0.465014 16.5056C0.349418 16.432 0.257466 16.3269 0.189158 16.1903C0.120851 16.0484 0.0761888 15.904 0.0551712 15.7568C0.039408 15.6045 0.0315264 15.4022 0.0315264 15.1499C0.0315264 14.7716 0.0709344 14.4853 0.14975 14.2909C0.228566 14.0964 0.383571 13.9204 0.614765 13.7628C0.856467 13.6052 1.01673 13.4449 1.09554 13.282C1.17961 13.1139 1.22165 12.8433 1.22165 12.4702V9.65648C1.22165 9.33596 1.18487 9.08375 1.11131 8.89984C1.03774 8.71594 0.893248 8.56094 0.677817 8.43483C0.530694 8.34551 0.415098 8.25881 0.331027 8.17474C0.246957 8.08541 0.170768 7.94092 0.102461 7.74125C0.0341536 7.53633 0 7.28149 0 6.97674C0 6.71927 0.0078816 6.51172 0.0236448 6.35409C0.039408 6.1912 0.0735616 6.04145 0.126106 5.90484C0.183904 5.76297 0.254838 5.65788 0.338909 5.58958C0.422979 5.51601 0.54383 5.45559 0.701462 5.4083C0.864349 5.35576 1.04825 5.3216 1.25317 5.30584C1.4581 5.29008 1.71819 5.28219 2.03345 5.28219C2.05972 5.28219 2.57991 5.27957 3.59401 5.27431C4.61336 5.2638 5.3516 5.26118 5.80874 5.26643C7.42184 5.26643 8.58831 5.55542 9.30817 6.13341C10.0333 6.71139 10.3906 7.62828 10.3801 8.88408C10.3801 10.1189 10.0123 11.0752 9.27664 11.753C8.54103 12.4308 7.41133 12.7592 5.88755 12.7382C5.46195 12.7329 5.15719 12.7434 4.97329 12.7697C4.79464 12.7907 4.67904 12.8301 4.6265 12.8879C4.57395 12.9457 4.54768 13.0482 4.54768 13.1953C4.54768 13.3582 4.58972 13.4817 4.67379 13.5657C4.76311 13.6498 4.97592 13.7628 5.3122 13.9047C5.63272 14.057 5.84289 14.2331 5.94273 14.4327C6.04781 14.6271 6.10036 14.8925 6.10036 15.2288C6.10036 15.5072 6.07671 15.7306 6.02942 15.8987C5.98739 16.0616 5.90594 16.2113 5.78509 16.3479C5.6695 16.4793 5.48559 16.5765 5.23338 16.6396C4.98117 16.7026 4.66853 16.7499 4.29547 16.7814C3.92241 16.813 3.43638 16.8287 2.83738 16.8287ZM5.80874 10.4052C6.22909 10.4052 6.50757 10.3264 6.64419 10.1688C6.7808 10.0111 6.83597 9.73267 6.8097 9.33333C6.77817 8.87094 6.62842 8.50839 6.36045 8.24567C6.09773 7.9777 5.71941 7.85159 5.2255 7.86736C5.09414 7.87261 4.99168 7.88049 4.91812 7.891C4.84456 7.89625 4.77888 7.91464 4.72108 7.94617C4.66328 7.9777 4.62387 8.0066 4.60285 8.03287C4.58184 8.05914 4.56607 8.11431 4.55556 8.19838C4.54505 8.28245 4.5398 8.35864 4.5398 8.42695C4.54505 8.49 4.55031 8.60297 4.55556 8.76586C4.56082 8.92874 4.56345 9.07587 4.56345 9.20723C4.56345 9.21773 4.56345 9.23087 4.56345 9.24663C4.56345 9.8036 4.61862 10.1399 4.72896 10.2555C4.84456 10.3711 5.20448 10.421 5.80874 10.4052Z" fill="#4B0082"/>
<path d="M14.0529 16.742C12.7445 16.742 11.917 16.6763 11.5702 16.545C11.2234 16.4084 11.05 16.0169 11.05 15.3706C11.05 15.0501 11.0868 14.7848 11.1603 14.5746C11.2339 14.3644 11.3758 14.1884 11.5859 14.0465C11.7646 13.9309 11.896 13.8101 11.98 13.684C12.0641 13.5526 12.1166 13.3792 12.1377 13.1638C12.1587 12.8853 12.1692 12.2443 12.1692 11.2407C12.1692 10.9937 12.1219 10.8335 12.0273 10.7599C11.9327 10.6811 11.7593 10.6364 11.5071 10.6259C11.2024 10.6101 10.9712 10.5445 10.8136 10.4289C10.6612 10.3133 10.585 10.111 10.585 9.82199C10.585 9.14943 10.8714 8.57407 11.4441 8.09592C11.9905 7.65455 12.5922 7.43387 13.249 7.43387C13.6536 7.43387 13.9714 7.5337 14.2026 7.73337C14.4391 7.92778 14.5626 8.18787 14.5731 8.51365C14.5731 8.53466 14.5731 8.56619 14.5731 8.60822C14.5731 8.65026 14.5731 8.68179 14.5731 8.7028C14.5731 8.71857 14.5731 8.74221 14.5731 8.77374C14.5731 8.80526 14.5731 8.82891 14.5731 8.84467C14.5783 8.85518 14.5836 8.87357 14.5888 8.89984C14.5941 8.92086 14.5993 8.93662 14.6046 8.94713C14.6151 8.95239 14.6256 8.9629 14.6361 8.97866C14.6466 8.99442 14.6598 9.00493 14.6755 9.01019C14.6913 9.01019 14.7097 9.01281 14.7307 9.01807C14.7517 9.02332 14.7754 9.02595 14.8016 9.02595C14.8227 9.02595 14.841 9.02332 14.8568 9.01807C14.8778 9.01281 14.8988 9.00493 14.9199 8.99442C14.9409 8.97866 14.9593 8.96552 14.975 8.95502C14.9908 8.93925 15.0066 8.91823 15.0223 8.89196C15.0433 8.86569 15.0617 8.84205 15.0775 8.82103C15.0933 8.80001 15.1116 8.76848 15.1327 8.72645C15.1589 8.68441 15.18 8.64763 15.1957 8.61611C15.2167 8.58458 15.243 8.53992 15.2745 8.48212C15.3061 8.42432 15.335 8.3744 15.3612 8.33237C15.7396 7.67557 16.3202 7.34717 17.1031 7.34717C17.8019 7.34717 18.3195 7.58099 18.6557 8.04863C18.992 8.51627 19.1549 9.1757 19.1444 10.0269C19.1339 10.7257 18.9973 11.2407 18.7346 11.5717C18.4718 11.8975 18.041 12.0604 17.442 12.0604C17.153 12.0604 16.9192 12.021 16.7405 11.9421C16.5671 11.8581 16.42 11.7215 16.2991 11.5323C16.2413 11.4377 16.1757 11.2985 16.1021 11.1146C16.0285 10.9307 15.9576 10.8019 15.8893 10.7284C15.821 10.6496 15.7264 10.6101 15.6056 10.6101C15.511 10.6101 15.4348 10.6259 15.377 10.6574C15.3192 10.689 15.2772 10.7468 15.2509 10.8308C15.2246 10.9096 15.2089 10.9753 15.2036 11.0279C15.1983 11.0804 15.1931 11.1724 15.1878 11.3037C15.1773 11.7241 15.1983 12.2942 15.2509 13.014C15.2614 13.219 15.3087 13.3845 15.3928 13.5106C15.4768 13.6314 15.6555 13.7575 15.9287 13.8889C16.3018 14.078 16.554 14.2672 16.6853 14.4564C16.8167 14.6403 16.8824 14.9398 16.8824 15.3549C16.8824 15.5808 16.8587 15.7673 16.8114 15.9145C16.7694 16.0563 16.6906 16.1851 16.575 16.3007C16.4594 16.4163 16.2913 16.5056 16.0706 16.5686C15.8499 16.6264 15.5793 16.6685 15.2588 16.6947C14.9383 16.7263 14.5363 16.742 14.0529 16.742Z" fill="#4B0082"/>
<path d="M23.8891 16.9391C22.3601 16.9391 21.2199 16.5187 20.4685 15.678C19.7171 14.8373 19.3414 13.6761 19.3414 12.1943C19.3414 11.6269 19.3992 11.0988 19.5148 10.6101C19.6304 10.1215 19.8091 9.67487 20.0508 9.27028C20.2977 8.86044 20.6025 8.51365 20.9651 8.22991C21.3276 7.94617 21.7637 7.72811 22.2734 7.57574C22.7883 7.4181 23.3584 7.34192 23.9837 7.34717C24.7403 7.35242 25.4076 7.4759 25.9856 7.71761C26.5636 7.95931 27.0339 8.29559 27.3964 8.72645C27.759 9.15731 28.0322 9.66436 28.2161 10.2476C28.4 10.8308 28.492 11.4798 28.492 12.1943C28.492 13.6656 28.1058 14.8242 27.3334 15.6701C26.561 16.5161 25.4129 16.9391 23.8891 16.9391ZM24.4408 14.0308C25.2605 13.8469 25.4865 13.1375 25.1187 11.9027C24.8927 11.1829 24.6536 10.6916 24.4014 10.4289C24.1545 10.1609 23.8287 10.0821 23.4241 10.1924C22.6517 10.3921 22.431 11.1776 22.7621 12.549C22.9197 13.1638 23.1351 13.5894 23.4083 13.8258C23.6868 14.0623 24.031 14.1306 24.4408 14.0308Z" fill="#4B0082"/>
<path d="M31.9284 16.742C31.3872 16.742 30.9432 16.7236 30.5964 16.6869C30.2496 16.6501 29.9658 16.5975 29.7452 16.5292C29.5245 16.4609 29.359 16.3558 29.2486 16.214C29.1435 16.0721 29.0726 15.9197 29.0358 15.7568C29.0043 15.5939 28.9885 15.3733 28.9885 15.0948C28.9885 14.8058 29.0306 14.5746 29.1146 14.4012C29.1987 14.2278 29.3458 14.0465 29.556 13.8574C29.8135 13.6314 29.9685 13.416 30.021 13.2111C30.0736 13.0009 30.0998 12.6252 30.0998 12.084C30.0998 11.9999 30.0998 11.9343 30.0998 11.887C30.0998 11.7714 30.0998 11.6453 30.0998 11.5087C30.1051 11.372 30.1077 11.2696 30.1077 11.2013C30.113 11.1277 30.113 11.0489 30.1077 10.9648C30.1077 10.8808 30.0998 10.8203 30.0841 10.7835C30.0736 10.7468 30.0578 10.71 30.0368 10.6732C30.0158 10.6312 29.9842 10.6049 29.9422 10.5944C29.9002 10.5786 29.8502 10.5681 29.7924 10.5629C29.7346 10.5524 29.6611 10.5471 29.5718 10.5471C29.4351 10.5524 29.3195 10.5392 29.225 10.5077C29.1356 10.4762 29.0647 10.4394 29.0122 10.3973C28.9596 10.3553 28.915 10.2817 28.8782 10.1767C28.8466 10.0663 28.823 9.97437 28.8072 9.90081C28.7967 9.82199 28.781 9.69326 28.76 9.51461C28.7127 9.16256 28.7258 8.88671 28.7994 8.68704C28.8729 8.48212 29.0489 8.25093 29.3274 7.99346C29.5534 7.79905 29.6663 7.55735 29.6663 7.26835C29.6663 6.87427 29.7478 6.49859 29.9107 6.14129C30.0736 5.77873 30.3021 5.45822 30.5964 5.17973C30.8959 4.896 31.2768 4.67006 31.7392 4.50192C32.2016 4.33378 32.7113 4.24971 33.2682 4.24971C35.2544 4.24971 36.2475 4.86972 36.2475 6.10976C36.2475 6.60893 36.1187 6.98724 35.8613 7.24471C35.6038 7.49692 35.2386 7.62303 34.7657 7.62303C34.545 7.62303 34.3743 7.61777 34.2534 7.60726C34.1378 7.59675 34.0301 7.58099 33.9303 7.55997C33.8357 7.53896 33.7595 7.49429 33.7017 7.42599C33.6492 7.35768 33.6019 7.28674 33.5598 7.21318C33.5178 7.13437 33.4626 7.01352 33.3943 6.85063C33.3103 6.67198 33.2183 6.54325 33.1185 6.46443C33.0239 6.38562 32.9004 6.35409 32.748 6.36985C32.7008 6.37511 32.6561 6.38299 32.6141 6.3935C32.5773 6.40401 32.5431 6.4224 32.5116 6.44867C32.4853 6.47494 32.4617 6.49859 32.4407 6.5196C32.4249 6.53537 32.4091 6.56427 32.3934 6.6063C32.3829 6.64834 32.3723 6.67986 32.3618 6.70088C32.3566 6.7219 32.3513 6.76393 32.3461 6.82699C32.3461 6.88478 32.3461 6.92682 32.3461 6.95309C32.3461 6.97411 32.3461 7.0214 32.3461 7.09496C32.3461 7.16852 32.3461 7.21581 32.3461 7.23683C32.3461 7.39446 32.3487 7.52057 32.354 7.61514C32.3592 7.70972 32.3802 7.79379 32.417 7.86736C32.4538 7.94092 32.4879 7.99346 32.5195 8.02499C32.5563 8.05651 32.6246 8.08279 32.7244 8.1038C32.8295 8.12482 32.9267 8.13796 33.016 8.14321C33.1053 8.14321 33.2472 8.14321 33.4416 8.14321C34.1037 8.14321 34.5135 8.16686 34.6712 8.21415C34.8971 8.2772 35.0337 8.4322 35.081 8.67916C35.1125 8.8473 35.1151 9.10477 35.0889 9.45156C35.0731 9.64071 35.0626 9.77995 35.0573 9.86928C35.0521 9.9586 35.0363 10.0611 35.0101 10.1767C34.989 10.287 34.9733 10.3632 34.9628 10.4052C34.9575 10.442 34.9286 10.4893 34.8761 10.5471C34.8235 10.5996 34.7815 10.6312 34.75 10.6417C34.7237 10.6522 34.6606 10.6653 34.5608 10.6811C34.4662 10.6968 34.3848 10.7047 34.3165 10.7047C34.2534 10.7047 34.1431 10.7047 33.9855 10.7047C33.9434 10.7047 33.9119 10.7047 33.8909 10.7047C33.77 10.7047 33.6702 10.7205 33.5914 10.752C33.5178 10.7783 33.46 10.8072 33.418 10.8387C33.3812 10.8702 33.3549 10.9359 33.3392 11.0358C33.3234 11.1303 33.3155 11.2092 33.3155 11.2722C33.3155 11.3353 33.3181 11.4509 33.3234 11.619C33.3287 11.7819 33.3313 11.9132 33.3313 12.0131C33.3313 12.0656 33.3313 12.1366 33.3313 12.2259C33.326 12.7303 33.3654 13.0823 33.4495 13.282C33.5336 13.4764 33.7674 13.6577 34.151 13.8258C34.4557 13.9625 34.6633 14.1148 34.7736 14.283C34.8892 14.4511 34.947 14.7217 34.947 15.0948C34.947 15.3627 34.9286 15.5782 34.8918 15.7411C34.8551 15.8987 34.7815 16.0511 34.6712 16.1982C34.5608 16.3401 34.3927 16.4478 34.1667 16.5213C33.9408 16.5897 33.6465 16.6422 33.284 16.679C32.9267 16.721 32.4748 16.742 31.9284 16.742Z" fill="#4B0082"/>
<path d="M38.2415 7.18954C37.5006 7.18954 36.9305 7.05818 36.5312 6.79546C36.1319 6.53274 35.9322 6.16493 35.9322 5.69204C35.9322 5.18761 36.1187 4.79091 36.4918 4.50192C36.8701 4.20767 37.4245 4.06055 38.1548 4.06055C38.8957 4.06055 39.45 4.2103 39.8178 4.5098C40.1856 4.80404 40.3695 5.20338 40.3695 5.7078C40.3695 6.69563 39.6602 7.18954 38.2415 7.18954ZM38.0918 16.742C37.5978 16.742 37.2458 16.7368 37.0356 16.7263C36.8307 16.721 36.5969 16.6947 36.3342 16.6474C36.0714 16.6054 35.8954 16.5319 35.8061 16.4268C35.7168 16.3217 35.638 16.1798 35.5697 16.0012C35.5066 15.8225 35.4751 15.5861 35.4751 15.2918C35.4751 14.7401 35.6537 14.3198 36.011 14.0308C36.1897 13.8731 36.3184 13.7155 36.3972 13.5579C36.476 13.4002 36.5312 13.1506 36.5627 12.8091C36.5732 12.6778 36.5785 12.1182 36.5785 11.1303C36.5785 10.8991 36.547 10.7468 36.4839 10.6732C36.4209 10.5944 36.2948 10.5471 36.1056 10.5313C35.8586 10.5208 35.6774 10.4578 35.5618 10.3422C35.4514 10.2266 35.3963 10.0374 35.3963 9.7747C35.3963 9.51198 35.4724 9.24138 35.6248 8.9629C35.7772 8.67916 35.9769 8.43746 36.2238 8.23779C36.7703 7.80693 37.435 7.5915 38.2179 7.5915C38.8852 7.5915 39.3686 7.72023 39.6681 7.9777C39.9728 8.22991 40.1252 8.61348 40.1252 9.12841C40.1252 9.44367 40.0595 9.88767 39.9282 10.4604C39.7968 11.0331 39.7285 11.4981 39.7233 11.8554C39.7233 12.4282 39.7338 12.8485 39.7548 13.1165C39.7705 13.3319 39.8021 13.5001 39.8494 13.6209C39.9019 13.7418 39.9886 13.8626 40.1095 13.9835C40.2723 14.1464 40.3906 14.3198 40.4641 14.5037C40.5429 14.6876 40.5823 14.945 40.5823 15.2761C40.5823 15.6806 40.5167 15.9828 40.3853 16.1824C40.2592 16.3821 40.0201 16.5266 39.6681 16.6159C39.3213 16.7 38.7959 16.742 38.0918 16.742Z" fill="#4B0082"/>
<path d="M44.9566 16.8603C44.0003 16.8603 43.2201 16.5897 42.6158 16.0484C42.0115 15.5072 41.7094 14.7769 41.7094 13.8574C41.7094 13.5631 41.7383 13.1349 41.7961 12.5727C41.8592 12.0104 41.8907 11.5612 41.8907 11.2249C41.8907 11.1724 41.8881 11.1303 41.8828 11.0988C41.8828 11.062 41.8802 11.0279 41.8749 10.9963C41.8749 10.9648 41.8671 10.9385 41.8513 10.9175C41.8408 10.8965 41.8329 10.8781 41.8276 10.8624C41.8224 10.8466 41.804 10.8361 41.7725 10.8308C41.7462 10.8203 41.7278 10.8124 41.7173 10.8072C41.7068 10.7967 41.6779 10.7914 41.6306 10.7914C41.5833 10.7862 41.5492 10.7835 41.5281 10.7835C41.5124 10.7835 41.4703 10.7835 41.402 10.7835C41.3337 10.7783 41.2812 10.7757 41.2444 10.7757C41.1288 10.7704 41.0316 10.7441 40.9528 10.6968C40.874 10.6496 40.8135 10.597 40.7715 10.5392C40.7347 10.4814 40.7058 10.3895 40.6848 10.2634C40.6638 10.1373 40.6507 10.0322 40.6454 9.9481C40.6454 9.85877 40.6454 9.71953 40.6454 9.53037C40.6454 9.34647 40.648 9.19934 40.6533 9.089C40.6585 8.97341 40.6848 8.86306 40.7321 8.75798C40.7794 8.65289 40.8188 8.5767 40.8503 8.52941C40.8819 8.47687 40.9607 8.40856 41.0868 8.32449C41.2129 8.23516 41.3153 8.17211 41.3942 8.13533C41.4782 8.09329 41.6359 8.01448 41.867 7.89888C42.1035 7.77803 42.3032 7.67557 42.4661 7.5915C42.5816 7.52845 42.7682 7.42599 43.0256 7.28412C43.2831 7.13699 43.4618 7.03979 43.5616 6.9925C43.6614 6.93995 43.798 6.8769 43.9714 6.80334C44.1448 6.72452 44.2972 6.67198 44.4286 6.64571C44.5652 6.61944 44.7044 6.6063 44.8463 6.6063C45.0302 6.6063 45.1799 6.65622 45.2955 6.75605C45.4111 6.85588 45.4689 7.01614 45.4689 7.23683C45.4689 7.33666 45.4716 7.42073 45.4768 7.48904C45.4873 7.55209 45.5031 7.60726 45.5241 7.65455C45.5451 7.69659 45.574 7.72811 45.6108 7.74913C45.6476 7.77015 45.6922 7.78854 45.7448 7.8043C45.7973 7.81481 45.8578 7.82007 45.9261 7.82007C45.9996 7.82007 46.0863 7.82007 46.1862 7.82007C46.2597 7.82007 46.3175 7.82007 46.3596 7.82007C46.5277 7.82007 46.6512 7.82269 46.73 7.82795C46.8088 7.82795 46.906 7.8332 47.0216 7.84371C47.1372 7.84896 47.2187 7.8621 47.2659 7.88312C47.3132 7.90414 47.3684 7.93304 47.4315 7.96982C47.4998 8.0066 47.5444 8.05389 47.5654 8.11168C47.5865 8.16423 47.6049 8.23254 47.6206 8.31661C47.6416 8.39542 47.6521 8.49263 47.6521 8.60822C47.6521 8.77637 47.6416 9.0023 47.6206 9.28604C47.5996 9.56452 47.5838 9.78521 47.5733 9.9481C47.5681 10.1005 47.5497 10.2318 47.5182 10.3422C47.4919 10.4473 47.4446 10.534 47.3763 10.6023C47.308 10.6653 47.2423 10.7179 47.1792 10.7599C47.1214 10.7967 47.0242 10.823 46.8876 10.8387C46.751 10.8545 46.6354 10.865 46.5408 10.8702C46.4515 10.8702 46.3044 10.8702 46.0995 10.8702C45.9156 10.8702 45.7842 10.8729 45.7054 10.8781C45.6266 10.8781 45.5425 10.886 45.4532 10.9018C45.3691 10.9123 45.3139 10.928 45.2877 10.9491C45.2666 10.9701 45.243 11.0069 45.2167 11.0594C45.1957 11.1067 45.1852 11.1619 45.1852 11.2249C45.1852 11.288 45.1852 11.3747 45.1852 11.485C45.1852 11.5691 45.1852 11.6374 45.1852 11.6899C45.1852 11.7372 45.1852 11.8187 45.1852 11.9343C45.1852 12.0499 45.1773 12.218 45.1616 12.4387C45.151 12.6594 45.1458 12.8196 45.1458 12.9195C45.1458 13.1612 45.2115 13.3477 45.3428 13.479C45.4794 13.6104 45.6634 13.6761 45.8945 13.6761C46.0417 13.6761 46.2571 13.6577 46.5408 13.6209C46.8246 13.5841 47.0216 13.5657 47.132 13.5657C47.3001 13.5657 47.4209 13.6262 47.4945 13.747C47.5733 13.8626 47.6101 14.0807 47.6049 14.4012C47.5943 15.1368 47.3579 15.7306 46.8955 16.1824C46.4331 16.6343 45.7868 16.8603 44.9566 16.8603Z" fill="#4B0082"/>
<rect x="50.1133" y="0.5" width="23.3433" height="20" rx="3.91984" fill="#FCB706"/>
<path d="M54.8664 16.5C53.2738 16.5 52.4775 15.6368 52.4775 13.9103C52.4775 13.1324 52.7279 12.5176 53.2288 12.0659C53.7346 11.6092 54.4432 11.3808 55.3547 11.3808C55.6803 11.3808 55.9883 11.4034 56.2787 11.4486C56.5742 11.4937 56.7545 11.5163 56.8196 11.5163C56.9298 11.5163 57.0074 11.5063 57.0525 11.4862C57.0976 11.4611 57.1326 11.3933 57.1577 11.2829C57.1877 11.1675 57.1977 10.9843 57.1877 10.7334C57.1727 9.99059 56.8897 9.6192 56.3388 9.6192C56.0634 9.6192 55.8631 9.66688 55.7379 9.76223C55.6127 9.85257 55.5175 10.0107 55.4524 10.2365C55.3623 10.5427 55.2295 10.761 55.0542 10.8915C54.884 11.022 54.621 11.0872 54.2655 11.0872C53.1787 11.0872 52.6353 10.6807 52.6353 9.86763C52.6353 9.20514 52.9683 8.64555 53.6344 8.18883C54.4257 7.62171 55.5501 7.33814 57.0074 7.33814C58.1042 7.33814 58.9281 7.57403 59.479 8.0458C60.0349 8.51757 60.3128 9.20263 60.3128 10.101C60.3128 10.5075 60.2778 11.0872 60.2077 11.84C60.1426 12.5928 60.11 13.0094 60.11 13.0897C60.11 13.3256 60.2077 13.4435 60.403 13.4435H60.8162C60.9965 13.4435 61.1242 13.5063 61.1993 13.6317C61.2744 13.7572 61.312 13.958 61.312 14.234C61.312 14.5 61.2719 14.7635 61.1918 15.0245C61.1116 15.2804 60.9939 15.5213 60.8387 15.7472C60.6884 15.968 60.4831 16.1462 60.2227 16.2817C59.9673 16.4172 59.6793 16.4849 59.3588 16.4849C58.6626 16.4849 58.1493 16.2842 57.8188 15.8827C57.7386 15.7873 57.661 15.6819 57.5859 15.5665C57.5158 15.4511 57.4607 15.3708 57.4206 15.3256C57.3805 15.2754 57.328 15.2503 57.2629 15.2503C57.1827 15.2503 57.1151 15.2729 57.06 15.3181C57.0099 15.3632 56.9473 15.446 56.8722 15.5665C56.7971 15.687 56.7345 15.7773 56.6844 15.8375C56.5141 16.0684 56.2988 16.2365 56.0384 16.3419C55.7829 16.4473 55.3923 16.5 54.8664 16.5ZM56.3614 14.1964C56.6318 14.1964 56.8447 14.1085 56.9999 13.9329C57.1552 13.7572 57.2328 13.5063 57.2328 13.18C57.2328 12.9341 57.2203 12.7911 57.1952 12.7509C57.1452 12.6907 56.9949 12.6606 56.7445 12.6606C56.5141 12.6606 56.3188 12.7384 56.1586 12.894C55.9983 13.0496 55.9106 13.2528 55.8956 13.5038C55.8656 13.7547 55.8831 13.9329 55.9482 14.0383C56.0183 14.1437 56.156 14.1964 56.3614 14.1964Z" fill="white"/>
<path d="M63.776 16.4172C63.4505 16.4172 63.1825 16.4122 62.9722 16.4021C62.7618 16.3921 62.559 16.367 62.3637 16.3268C62.1684 16.2917 62.0156 16.2415 61.9054 16.1763C61.7953 16.111 61.6976 16.0232 61.6125 15.9128C61.5323 15.8024 61.4747 15.6694 61.4397 15.5138C61.4096 15.3582 61.3946 15.1675 61.3946 14.9417C61.3946 14.6255 61.4221 14.3795 61.4772 14.2039C61.5323 14.0232 61.6575 13.8476 61.8528 13.6769C62.0131 13.5414 62.1183 13.3883 62.1684 13.2177C62.2184 13.042 62.256 12.7685 62.281 12.3971C62.2911 12.0458 62.2961 11.4962 62.2961 10.7484C62.2961 9.6192 62.2911 8.85885 62.281 8.46738C62.271 8.22647 62.2335 8.07089 62.1684 8.00063C62.1083 7.92534 61.973 7.88018 61.7627 7.86512C61.4923 7.85508 61.2869 7.79235 61.1467 7.67691C61.0015 7.56148 60.9288 7.36073 60.9288 7.07465C60.9288 6.53764 61.1592 6.00314 61.62 5.47114C61.8654 5.17503 62.1634 4.93915 62.5139 4.76349C62.8645 4.58783 63.2451 4.5 63.6558 4.5C64.2317 4.5 64.7 4.65809 65.0606 4.97428C65.4262 5.29046 65.609 5.75471 65.609 6.367C65.609 6.53262 65.5664 7.29799 65.4813 8.66311C65.331 10.6455 65.2759 11.9981 65.316 12.7208C65.331 12.9517 65.3636 13.1274 65.4137 13.2478C65.4637 13.3683 65.5589 13.4912 65.6991 13.6167C65.8744 13.7673 65.9996 13.9304 66.0747 14.106C66.1549 14.2817 66.1949 14.5276 66.1949 14.8438C66.1949 15.1499 66.1624 15.3959 66.0973 15.5816C66.0372 15.7622 65.9195 15.9203 65.7442 16.0558C65.5689 16.1913 65.3235 16.2842 65.008 16.3344C64.6975 16.3896 64.2868 16.4172 63.776 16.4172Z" fill="white"/>
<path d="M68.674 16.4172C68.3485 16.4172 68.0805 16.4122 67.8702 16.4021C67.6598 16.3921 67.457 16.367 67.2617 16.3268C67.0664 16.2917 66.9136 16.2415 66.8034 16.1763C66.6933 16.111 66.5956 16.0232 66.5105 15.9128C66.4303 15.8024 66.3727 15.6694 66.3377 15.5138C66.3076 15.3582 66.2926 15.1675 66.2926 14.9417C66.2926 14.6255 66.3201 14.3795 66.3752 14.2039C66.4303 14.0232 66.5555 13.8476 66.7508 13.6769C66.9111 13.5414 67.0163 13.3883 67.0664 13.2177C67.1164 13.042 67.154 12.7685 67.179 12.3971C67.1891 12.0458 67.1941 11.4962 67.1941 10.7484C67.1941 9.6192 67.1891 8.85885 67.179 8.46738C67.169 8.22647 67.1315 8.07089 67.0664 8.00063C67.0063 7.92534 66.871 7.88018 66.6607 7.86512C66.3903 7.85508 66.1849 7.79235 66.0447 7.67691C65.8995 7.56148 65.8268 7.36073 65.8268 7.07465C65.8268 6.53764 66.0572 6.00314 66.518 5.47114C66.7634 5.17503 67.0614 4.93915 67.4119 4.76349C67.7625 4.58783 68.1431 4.5 68.5538 4.5C69.1297 4.5 69.598 4.65809 69.9586 4.97428C70.3242 5.29046 70.507 5.75471 70.507 6.367C70.507 6.53262 70.4644 7.29799 70.3793 8.66311C70.229 10.6455 70.1739 11.9981 70.214 12.7208C70.229 12.9517 70.2616 13.1274 70.3117 13.2478C70.3617 13.3683 70.4569 13.4912 70.5971 13.6167C70.7724 13.7673 70.8976 13.9304 70.9727 14.106C71.0529 14.2817 71.0929 14.5276 71.0929 14.8438C71.0929 15.1499 71.0604 15.3959 70.9953 15.5816C70.9352 15.7622 70.8175 15.9203 70.6422 16.0558C70.4669 16.1913 70.2215 16.2842 69.906 16.3344C69.5955 16.3896 69.1848 16.4172 68.674 16.4172Z" fill="white"/>
</g>
<defs>
<clipPath id="clip0_2426_34575">
<rect width="73.457" height="20" fill="white" transform="translate(0 0.5)"/>
</clipPath>
</defs>
</svg>
