<svg width="47" height="9" viewBox="0 0 47 9" fill="none" xmlns="http://www.w3.org/2000/svg">
<path d="M5.21512 1.27426L5.81605 2.47611C5.89799 2.64342 6.11651 2.80389 6.30088 2.83462L7.39006 3.01558C8.08659 3.13167 8.25048 3.63699 7.74857 4.13549L6.90181 4.98225C6.75841 5.12565 6.67988 5.40221 6.72426 5.60025L6.96668 6.64845C7.15789 7.47814 6.71743 7.79909 5.98335 7.36547L4.96246 6.76113C4.77808 6.65187 4.47421 6.65187 4.28642 6.76113L3.26552 7.36547C2.53485 7.79909 2.09099 7.47472 2.28219 6.64845L2.52461 5.60025C2.569 5.40221 2.49047 5.12565 2.34706 4.98225L1.5003 4.13549C1.00181 3.63699 1.16228 3.13167 1.85881 3.01558L2.94799 2.83462C3.12895 2.80389 3.34747 2.64342 3.42941 2.47611L4.03034 1.27426C4.35812 0.622121 4.89076 0.622121 5.21512 1.27426Z" fill="#FFC700" stroke="#FFC700" stroke-width="0.614583" stroke-linecap="round" stroke-linejoin="round"/>
<path d="M14.6387 1.27426L15.2396 2.47611C15.3216 2.64342 15.5401 2.80389 15.7245 2.83462L16.8136 3.01558C17.5102 3.13167 17.6741 3.63699 17.1722 4.13549L16.3254 4.98225C16.182 5.12565 16.1035 5.40221 16.1478 5.60025L16.3903 6.64845C16.5815 7.47814 16.141 7.79909 15.4069 7.36547L14.386 6.76113C14.2017 6.65187 13.8978 6.65187 13.71 6.76113L12.6891 7.36547C11.9584 7.79909 11.5146 7.47472 11.7058 6.64845L11.9482 5.60025C11.9926 5.40221 11.9141 5.12565 11.7706 4.98225L10.9239 4.13549C10.4254 3.63699 10.5859 3.13167 11.2824 3.01558L12.3716 2.83462C12.5525 2.80389 12.7711 2.64342 12.853 2.47611L13.4539 1.27426C13.7817 0.622121 14.3143 0.622121 14.6387 1.27426Z" fill="#FFC700" stroke="#FFC700" stroke-width="0.614583" stroke-linecap="round" stroke-linejoin="round"/>
<path d="M24.0623 1.27426L24.6632 2.47611C24.7452 2.64342 24.9637 2.80389 25.1481 2.83462L26.2372 3.01558C26.9338 3.13167 27.0976 3.63699 26.5957 4.13549L25.749 4.98225C25.6056 5.12565 25.527 5.40221 25.5714 5.60025L25.8139 6.64845C26.0051 7.47814 25.5646 7.79909 24.8305 7.36547L23.8096 6.76113C23.6253 6.65187 23.3214 6.65187 23.1336 6.76113L22.1127 7.36547C21.382 7.79909 20.9382 7.47472 21.1294 6.64845L21.3718 5.60025C21.4162 5.40221 21.3376 5.12565 21.1942 4.98225L20.3475 4.13549C19.849 3.63699 20.0095 3.13167 20.706 3.01558L21.7952 2.83462C21.9761 2.80389 22.1946 2.64342 22.2766 2.47611L22.8775 1.27426C23.2053 0.622121 23.7379 0.622121 24.0623 1.27426Z" fill="#FFC700" stroke="#FFC700" stroke-width="0.614583" stroke-linecap="round" stroke-linejoin="round"/>
<path d="M33.4861 1.27426L34.087 2.47611C34.169 2.64342 34.3875 2.80389 34.5719 2.83462L35.6611 3.01558C36.3576 3.13167 36.5215 3.63699 36.0196 4.13549L35.1728 4.98225C35.0294 5.12565 34.9509 5.40221 34.9953 5.60025L35.2377 6.64845C35.4289 7.47814 34.9884 7.79909 34.2543 7.36547L33.2335 6.76113C33.0491 6.65187 32.7452 6.65187 32.5574 6.76113L31.5365 7.36547C30.8058 7.79909 30.362 7.47472 30.5532 6.64845L30.7956 5.60025C30.84 5.40221 30.7615 5.12565 30.6181 4.98225L29.7713 4.13549C29.2728 3.63699 29.4333 3.13167 30.1298 3.01558L31.219 2.83462C31.3999 2.80389 31.6185 2.64342 31.7004 2.47611L32.3013 1.27426C32.6291 0.622121 33.1618 0.622121 33.4861 1.27426Z" fill="#C8CCD0" stroke="#C8CCD0" stroke-width="0.614583" stroke-linecap="round" stroke-linejoin="round"/>
<path d="M42.9097 1.27426L43.5106 2.47611C43.5926 2.64342 43.8111 2.80389 43.9955 2.83462L45.0846 3.01558C45.7812 3.13167 45.9451 3.63699 45.4431 4.13549L44.5964 4.98225C44.453 5.12565 44.3745 5.40221 44.4188 5.60025L44.6613 6.64845C44.8525 7.47814 44.412 7.79909 43.6779 7.36547L42.657 6.76113C42.4727 6.65187 42.1688 6.65187 41.981 6.76113L40.9601 7.36547C40.2294 7.79909 39.7856 7.47472 39.9768 6.64845L40.2192 5.60025C40.2636 5.40221 40.185 5.12565 40.0416 4.98225L39.1949 4.13549C38.6964 3.63699 38.8569 3.13167 39.5534 3.01558L40.6426 2.83462C40.8235 2.80389 41.042 2.64342 41.124 2.47611L41.7249 1.27426C42.0527 0.622121 42.5853 0.622121 42.9097 1.27426Z" fill="#C8CCD0" stroke="#C8CCD0" stroke-width="0.614583" stroke-linecap="round" stroke-linejoin="round"/>
</svg>
