<svg width="17" height="17" viewBox="0 0 17 17" fill="none" xmlns="http://www.w3.org/2000/svg">
<path d="M8.39804 1.38477C4.63542 1.38477 1.56934 4.45085 1.56934 8.21347C1.56934 11.9761 4.63542 15.0422 8.39804 15.0422C12.1607 15.0422 15.2267 11.9761 15.2267 8.21347C15.2267 4.45085 12.1607 1.38477 8.39804 1.38477ZM11.6622 6.64287L7.79029 10.5147C7.69468 10.6103 7.56494 10.665 7.42836 10.665C7.29179 10.665 7.16204 10.6103 7.06644 10.5147L5.13392 8.58222C4.93589 8.38419 4.93589 8.05641 5.13392 7.85838C5.33195 7.66034 5.65973 7.66034 5.85776 7.85838L7.42836 9.42898L10.9383 5.91903C11.1364 5.72099 11.4641 5.72099 11.6622 5.91903C11.8602 6.11706 11.8602 6.43801 11.6622 6.64287Z" fill="#006600"/>
</svg>
