<svg width="17" height="17" viewBox="0 0 17 17" fill="none" xmlns="http://www.w3.org/2000/svg">
<path d="M15.2974 10.6037C15.4886 10.6037 15.6389 10.754 15.6389 10.9452V11.628C15.6389 12.7616 14.7238 13.6766 13.5902 13.6766C13.5902 12.5499 12.6684 11.628 11.5416 11.628C10.4149 11.628 9.49302 12.5499 9.49302 13.6766H8.12728C8.12728 12.5499 7.2054 11.628 6.07867 11.628C4.95193 11.628 4.03006 12.5499 4.03006 13.6766C2.89649 13.6766 1.98145 12.7616 1.98145 11.628V10.2623C1.98145 9.88672 2.28874 9.57943 2.66432 9.57943H9.15158C10.0939 9.57943 10.8588 8.81461 10.8588 7.87225V4.11646C10.8588 3.74089 11.1661 3.43359 11.5416 3.43359H12.1152C12.6069 3.43359 13.0576 3.69991 13.3034 4.12329L13.7405 4.88811C13.8019 4.99737 13.72 5.14077 13.5902 5.14077C12.6479 5.14077 11.8831 5.90558 11.8831 6.84795V8.89656C11.8831 9.83892 12.6479 10.6037 13.5902 10.6037H15.2974Z" fill="#005C00"/>
<path d="M6.07863 15.042C6.83291 15.042 7.44437 14.4306 7.44437 13.6763C7.44437 12.922 6.83291 12.3105 6.07863 12.3105C5.32435 12.3105 4.71289 12.922 4.71289 13.6763C4.71289 14.4306 5.32435 15.042 6.07863 15.042Z" fill="#005C00"/>
<path d="M11.5416 15.042C12.2959 15.042 12.9074 14.4306 12.9074 13.6763C12.9074 12.922 12.2959 12.3105 11.5416 12.3105C10.7874 12.3105 10.1759 12.922 10.1759 13.6763C10.1759 14.4306 10.7874 15.042 11.5416 15.042Z" fill="#005C00"/>
<path d="M15.6388 8.57655V9.58037H13.5902C13.2146 9.58037 12.9073 9.27308 12.9073 8.8975V6.84889C12.9073 6.47331 13.2146 6.16602 13.5902 6.16602H14.4711L15.4613 7.90051C15.5774 8.10537 15.6388 8.33754 15.6388 8.57655Z" fill="#005C00"/>
<path d="M9.54765 1.38672H4.50124C3.2789 1.38672 2.25459 2.26079 2.02925 3.42167H5.01339C5.27288 3.42167 5.47774 3.63336 5.47774 3.89285C5.47774 4.15234 5.27288 4.3572 5.01339 4.3572H1.98145V5.29957H3.75691C4.0164 5.29957 4.22809 5.51126 4.22809 5.77075C4.22809 6.03024 4.0164 6.2351 3.75691 6.2351H1.98145V7.17746H2.50726C2.76675 7.17746 2.97844 7.38915 2.97844 7.64864C2.97844 7.90813 2.76675 8.11299 2.50726 8.11299H1.98145V8.27005C1.98145 8.64563 2.28874 8.95292 2.66432 8.95292H8.91258C9.60911 8.95292 10.1759 8.38614 10.1759 7.68961V2.01496C10.1759 1.6667 9.89591 1.38672 9.54765 1.38672Z" fill="#005C00"/>
<path d="M2.02932 3.42188H1.92689H1.25768C0.998189 3.42188 0.786499 3.63356 0.786499 3.89306C0.786499 4.15255 0.998189 4.35741 1.25768 4.35741H1.87909H1.98152V3.90671C1.98152 3.74282 2.00201 3.57894 2.02932 3.42188Z" fill="#005C00"/>
<path d="M1.87909 5.30078H1.25768C0.998189 5.30078 0.786499 5.51247 0.786499 5.77196C0.786499 6.03145 0.998189 6.23631 1.25768 6.23631H1.87909H1.98152V5.30078H1.87909Z" fill="#005C00"/>
<path d="M1.87909 7.17773H1.25768C0.998189 7.17773 0.786499 7.38942 0.786499 7.64892C0.786499 7.90841 0.998189 8.11327 1.25768 8.11327H1.87909H1.98152V7.17773H1.87909Z" fill="#005C00"/>
</svg>
