<svg width="192" height="20" viewBox="0 0 192 20" fill="none" xmlns="http://www.w3.org/2000/svg">
<rect x="0.644444" y="0.242101" width="190.357" height="19.5028" rx="3.19583" fill="white"/>
<rect x="0.644444" y="0.242101" width="190.357" height="19.5028" rx="3.19583" stroke="#222222" stroke-width="0.163889"/>
<path d="M7.36958 8.454C7.36958 7.76567 7.92024 7.31252 8.74624 7.31252C9.4862 7.31252 9.97377 7.72552 10.0369 8.41385H9.61813C9.57224 7.94922 9.25676 7.68536 8.74051 7.68536C8.16116 7.68536 7.78258 7.98364 7.78258 8.44827C7.78258 8.80964 7.99481 9.03909 8.42502 9.14807L9.13056 9.32015C9.77301 9.47503 10.1057 9.84214 10.1057 10.3985C10.1057 11.1098 9.55503 11.563 8.70609 11.563C7.90877 11.563 7.36958 11.1442 7.31795 10.4731H7.74242C7.76537 10.9033 8.14395 11.1844 8.70609 11.1844C9.30838 11.1844 9.6927 10.8918 9.6927 10.4215C9.6927 10.0544 9.4862 9.81346 9.04452 9.71021L8.35045 9.53813C7.70801 9.38325 7.36958 9.01614 7.36958 8.454ZM12.0292 11.563C11.2147 11.563 10.6698 10.9779 10.6698 10.106C10.6698 9.23985 11.2089 8.64329 12.0005 8.64329C12.752 8.64329 13.2625 9.17675 13.2625 9.9626V10.1576H11.0541C11.0828 10.8345 11.4384 11.2245 12.0349 11.2245C12.4881 11.2245 12.7806 11.0295 12.8839 10.6624H13.2625C13.1133 11.2475 12.6831 11.563 12.0292 11.563ZM12.0005 8.98172C11.4785 8.98172 11.1344 9.32589 11.0655 9.87082H12.8667C12.8667 9.33736 12.5225 8.98172 12.0005 8.98172ZM14.767 11.563C14.1762 11.563 13.8263 11.2303 13.8263 10.7427C13.8263 10.2322 14.2164 9.91097 14.8645 9.85935L15.7823 9.78478V9.693C15.7823 9.14807 15.4554 8.97599 15.0481 8.97599C14.5663 8.97599 14.2795 9.19396 14.2795 9.56681H13.9181C13.9181 9.00467 14.377 8.64329 15.0596 8.64329C15.702 8.64329 16.1724 8.96452 16.1724 9.69874V11.4941H15.8397L15.7881 11.0066C15.616 11.3565 15.2374 11.563 14.767 11.563ZM14.8588 11.2418C15.4439 11.2418 15.7823 10.8345 15.7823 10.2322V10.0831L14.9621 10.1462C14.4401 10.192 14.2278 10.4215 14.2278 10.7312C14.2278 11.0697 14.4802 11.2418 14.8588 11.2418ZM18.5203 8.68345V9.03909H18.3023C17.7918 9.03909 17.4648 9.38325 17.4648 9.91097V11.4941H17.069V8.71786H17.4419L17.4706 9.14807C17.5795 8.84979 17.8721 8.65477 18.2621 8.65477C18.3482 8.65477 18.4228 8.6605 18.5203 8.68345ZM18.8474 10.1117C18.8474 9.23985 19.3809 8.64329 20.1896 8.64329C20.8321 8.64329 21.3024 9.01614 21.4114 9.58975H21.0156C20.9124 9.20543 20.5797 8.9932 20.1954 8.9932C19.6332 8.9932 19.2374 9.4234 19.2374 10.106C19.2374 10.7657 19.6046 11.2073 20.1667 11.2073C20.5797 11.2073 20.9124 10.9779 21.0214 10.6223H21.4229C21.291 11.1901 20.7977 11.563 20.1667 11.563C19.3809 11.563 18.8474 10.9836 18.8474 10.1117ZM22.5207 11.4884H22.1249V7.31252H22.5207V9.1997C22.6986 8.867 23.037 8.64329 23.5016 8.64329C24.2301 8.64329 24.5571 9.09645 24.5571 9.79625V11.4941H24.1613V9.88229C24.1613 9.23411 23.8572 9.00467 23.427 9.00467C22.8305 9.00467 22.5207 9.44635 22.5207 9.97981V11.4884ZM27.4858 11.4941H27.1416V7.31252H27.5374V9.25706C27.7325 8.84979 28.111 8.64329 28.5814 8.64329C29.3902 8.64329 29.8606 9.27427 29.8606 10.1117C29.8606 10.9435 29.3787 11.563 28.5699 11.563C28.1053 11.563 27.721 11.3565 27.526 10.9263L27.4858 11.4941ZM27.5432 10.1003C27.5432 10.7427 27.8988 11.2016 28.5068 11.2016C29.1091 11.2016 29.459 10.7427 29.459 10.1003C29.459 9.46356 29.1091 8.99893 28.5068 8.99893C27.8988 8.99893 27.5432 9.46356 27.5432 10.1003ZM31.0069 11.4941H30.6111V7.31252H31.0069V11.4941ZM31.756 10.106C31.756 9.25706 32.3526 8.64329 33.1671 8.64329C33.9817 8.64329 34.5782 9.25706 34.5782 10.106C34.5782 10.9492 33.9817 11.563 33.1671 11.563C32.3526 11.563 31.756 10.9492 31.756 10.106ZM32.1576 10.1003C32.1576 10.7542 32.5706 11.2073 33.1671 11.2073C33.7579 11.2073 34.1767 10.7542 34.1767 10.1003C34.1767 9.45782 33.7579 8.99893 33.1671 8.99893C32.5706 8.99893 32.1576 9.45782 32.1576 10.1003ZM35.1244 10.0257C35.1244 9.26853 35.612 8.64329 36.4265 8.64329C36.9083 8.64329 37.2754 8.867 37.4532 9.27427L37.4934 8.71786H37.8376V11.4081C37.8376 12.2341 37.3098 12.7733 36.4953 12.7733C35.784 12.7733 35.285 12.3718 35.176 11.7006H35.5718C35.6578 12.1481 36.002 12.4119 36.501 12.4119C37.0689 12.4119 37.4475 12.0276 37.4475 11.4483V10.7886C37.2582 11.1787 36.8739 11.4081 36.3978 11.4081C35.6062 11.4081 35.1244 10.7829 35.1244 10.0257ZM35.5202 10.02C35.5202 10.5878 35.8701 11.0525 36.4552 11.0525C37.0575 11.0525 37.4131 10.6165 37.4131 10.02C37.4131 9.42914 37.0689 8.9932 36.4609 8.9932C35.8643 8.9932 35.5202 9.45782 35.5202 10.02Z" fill="#222222"/>
<path d="M171.418 0.160156H187.807C189.617 0.160156 191.085 1.62767 191.085 3.43793V16.549C191.085 18.3593 189.617 19.8268 187.807 19.8268H171.418V0.160156Z" fill="#0E0C01"/>
<path d="M180.844 13.2715C182.88 13.2715 184.531 11.6205 184.531 9.58398C184.531 7.54743 182.88 5.89648 180.844 5.89648C178.807 5.89648 177.156 7.54743 177.156 9.58398C177.156 11.6205 178.807 13.2715 180.844 13.2715Z" stroke="white" stroke-width="0.614583" stroke-linecap="round" stroke-linejoin="round"/>
<path d="M184.092 13.5533C184.309 14.2088 184.805 14.2744 185.186 13.7008C185.534 13.1763 185.305 12.7461 184.674 12.7461C184.207 12.742 183.944 13.1067 184.092 13.5533Z" stroke="white" stroke-width="0.614583" stroke-linecap="round" stroke-linejoin="round"/>
</svg>
