<svg width="19" height="19" viewBox="0 0 19 19" fill="none" xmlns="http://www.w3.org/2000/svg">
<path d="M8.10152 2.30317C8.62147 1.85858 9.47298 1.85858 10.0005 2.30317L11.1911 3.328C11.4171 3.52393 11.8391 3.68217 12.1406 3.68217H13.4216C14.2204 3.68217 14.8759 4.33776 14.8759 5.13652V6.41756C14.8759 6.71145 15.0342 7.14097 15.2301 7.36703L16.2549 8.55765C16.6995 9.0776 16.6995 9.92911 16.2549 10.4566L15.2301 11.6472C15.0342 11.8733 14.8759 12.2953 14.8759 12.5967V13.8777C14.8759 14.6765 14.2204 15.3321 13.4216 15.3321H12.1406C11.8467 15.3321 11.4171 15.4903 11.1911 15.6862L10.0005 16.7111C9.48052 17.1557 8.62901 17.1557 8.10152 16.7111L6.91091 15.6862C6.68485 15.4903 6.26286 15.3321 5.96144 15.3321H4.65779C3.85903 15.3321 3.20344 14.6765 3.20344 13.8777V12.5891C3.20344 12.2953 3.04519 11.8733 2.85681 11.6472L1.83951 10.4491C1.40245 9.92911 1.40245 9.08513 1.83951 8.56518L2.85681 7.36703C3.04519 7.14097 3.20344 6.71898 3.20344 6.4251V5.12899C3.20344 4.33022 3.85903 3.67464 4.65779 3.67464H5.96144C6.25532 3.67464 6.68485 3.51639 6.91091 3.32047L8.10152 2.30317Z" fill="white"/>
<path d="M6.31641 9.50035L8.13246 11.3239L11.7721 7.67676" stroke="#470E81" stroke-width="1.80852" stroke-linecap="round" stroke-linejoin="round"/>
</svg>
