<svg width="20" height="20" viewBox="0 0 20 20" fill="none" xmlns="http://www.w3.org/2000/svg">
<path d="M8.33203 11.541H11.6654C11.6955 11.541 11.7268 11.5533 11.7524 11.5789C11.7781 11.6046 11.7904 11.6359 11.7904 11.666C11.7904 11.6962 11.7781 11.7274 11.7524 11.7531C11.7268 11.7787 11.6955 11.791 11.6654 11.791H8.33203C8.30188 11.791 8.2706 11.7787 8.24496 11.7531C8.21932 11.7274 8.20703 11.6962 8.20703 11.666C8.20703 11.6359 8.21932 11.6046 8.24496 11.5789C8.2706 11.5533 8.30188 11.541 8.33203 11.541Z" fill="white" stroke="white"/>
<path d="M9.9987 8.45898H8.33203C8.30188 8.45898 8.2706 8.4467 8.24496 8.42106C8.21932 8.39541 8.20703 8.36413 8.20703 8.33398C8.20703 8.30384 8.21932 8.27256 8.24496 8.24691C8.2706 8.22127 8.30188 8.20898 8.33203 8.20898H9.9987C10.0288 8.20898 10.0601 8.22127 10.0858 8.24691C10.1114 8.27256 10.1237 8.30384 10.1237 8.33398C10.1237 8.36413 10.1114 8.39541 10.0858 8.42106C10.0601 8.4467 10.0288 8.45898 9.9987 8.45898Z" stroke="white"/>
<path d="M13.4924 1.66602H6.51745C3.48411 1.66602 1.67578 3.47435 1.67578 6.50768V13.4827C1.67578 16.516 3.48411 18.3243 6.51745 18.3243H13.4924C16.5258 18.3243 18.3341 16.516 18.3341 13.4827V6.50768C18.3341 3.47435 16.5258 1.66602 13.4924 1.66602ZM15.0008 12.4993C15.0008 14.166 14.1674 14.9993 12.5008 14.9993H7.50077C5.83411 14.9993 5.00077 14.166 5.00077 12.4993V7.49935C5.00077 5.83268 5.83411 4.99935 7.50077 4.99935H10.8341C12.5008 4.99935 13.3341 5.83268 13.3341 7.49935V8.33268C13.3341 8.79102 13.7091 9.16602 14.1674 9.16602C14.6258 9.16602 15.0008 9.54102 15.0008 9.99935V12.4993Z" fill="#E7E7E6"/>
</svg>
